<svg width="245" height="58" viewBox="0 0 245 58" fill="none" xmlns="http://www.w3.org/2000/svg">
<path d="M123.745 7.62335H7.76721V50.3853H123.745V7.62335Z" fill="#ED1C24"/>
<path d="M128.701 3.26466H2.80318V54.744H128.701V3.26466ZM1.7097 1.27634H130.896V56.7236H0.607544V1.27634H1.7097Z" fill="#ED1C24"/>
<path d="M55.5418 26.7599C54.8562 25.9003 54.1793 25.2404 53.5371 24.7716C52.8515 24.3461 52.2093 24.1117 51.489 24.1117C50.8468 24.1117 50.2827 24.268 49.8401 24.5805C49.3541 24.8931 48.9983 25.2838 48.7205 25.8308C48.4428 26.3344 48.2346 26.9249 48.0783 27.55C47.9568 28.2099 47.8787 28.8784 47.8787 29.5383C47.8787 30.2416 47.9568 30.9449 48.0349 31.6048C48.1564 32.2647 48.3561 32.8898 48.6338 33.4021C48.9115 33.9491 49.2326 34.3746 49.7186 34.6871C50.1612 34.9997 50.7253 35.156 51.4022 35.156C51.7233 35.156 52.0444 35.1213 52.3655 34.9997C52.6866 34.9216 53.0077 34.7653 53.3722 34.5308C53.6933 34.3398 54.0144 34.062 54.3789 33.7147C54.7434 33.3674 55.1426 32.9332 55.5418 32.4296V26.7599ZM60.4364 38.1168C60.4364 38.2731 60.393 38.3946 60.3583 38.4641C60.2802 38.5856 60.1587 38.6551 59.9938 38.7419C59.8289 38.7766 59.6293 38.8201 59.3516 38.8635C59.1086 38.8982 58.7875 38.8982 58.3883 38.8982C57.9457 38.8982 57.6246 38.8982 57.3469 38.8635C57.1039 38.8287 56.9043 38.7853 56.7481 38.7419C56.5832 38.6638 56.4704 38.5856 56.3836 38.4641C56.3055 38.3859 56.2621 38.2731 56.2621 38.1168V36.2413C55.3769 37.179 54.4136 37.9171 53.4503 38.4293C52.4436 38.9329 51.3675 39.2108 50.1612 39.2108C48.8334 39.2108 47.6705 38.9764 46.7939 38.4728C45.874 37.9692 45.1103 37.2659 44.5115 36.441C43.9474 35.5814 43.5048 34.5656 43.2705 33.4368C42.9928 32.3081 42.8713 31.0925 42.8713 29.8509C42.8713 28.3662 43.0362 27.003 43.392 25.7961C43.7131 24.5892 44.1991 23.5734 44.8326 22.7138C45.4748 21.8542 46.2732 21.1943 47.2365 20.7255C48.1564 20.2913 49.2846 20.0656 50.5257 20.0656C51.489 20.0656 52.3742 20.2566 53.1726 20.6473C53.971 21.038 54.7781 21.585 55.5418 22.3231V13.1368C55.5418 13.0153 55.5852 12.9024 55.6633 12.7895C55.7414 12.7114 55.8629 12.5985 56.0625 12.5551C56.2274 12.477 56.5051 12.3988 56.7828 12.3641C57.1039 12.3293 57.5031 12.3293 57.9891 12.3293C58.4751 12.3293 58.8743 12.3293 59.1954 12.3641C59.5165 12.3988 59.7595 12.4856 59.9157 12.5551C60.1153 12.5985 60.2368 12.7114 60.3149 12.7895C60.393 12.9024 60.4364 13.024 60.4364 13.1368V38.1168ZM85.1612 29.7293C85.1612 28.9913 85.1178 28.288 84.9963 27.6195C84.8748 26.9596 84.6752 26.3692 84.4322 25.8656C84.1545 25.3186 83.79 24.9278 83.3908 24.6153C82.9482 24.3027 82.3841 24.1464 81.7419 24.1464C81.4208 24.1464 81.0997 24.1811 80.7786 24.3027C80.4575 24.3808 80.1364 24.5371 79.7719 24.7716C79.4508 24.9626 79.1297 25.2404 78.7652 25.5877C78.4007 25.9437 78.0449 26.3692 77.6457 26.8728V32.4557C78.3226 33.3153 79.0082 33.9404 79.6157 34.4093C80.2579 34.8781 80.9001 35.1126 81.5857 35.1126C82.2279 35.1126 82.7486 34.9563 83.2346 34.6437C83.6772 34.3311 84.033 33.9057 84.3194 33.3934C84.5971 32.8898 84.8401 32.2994 84.9616 31.6395C85.0831 31.0144 85.1612 30.3458 85.1612 29.7293ZM90.2988 29.3734C90.2988 30.8928 90.1339 32.2647 89.8128 33.4716C89.4483 34.6784 88.971 35.6943 88.3288 36.5539C87.6866 37.4135 86.9229 38.0734 85.9596 38.5075C84.9963 38.9763 83.9115 39.2108 82.6705 39.2108C82.1845 39.2108 81.7072 39.176 81.3079 39.0545C80.8654 38.9763 80.4661 38.8201 80.0669 38.629C79.6677 38.438 79.2598 38.2036 78.8606 37.891C78.4961 37.6219 78.0622 37.2659 77.6543 36.8752V44.8719C77.6543 44.9934 77.6109 45.1063 77.5328 45.2192C77.4547 45.2973 77.3332 45.4102 77.1336 45.4536C76.934 45.5317 76.691 45.6099 76.3699 45.6446C76.0922 45.6793 75.6843 45.6793 75.207 45.6793C74.7297 45.6793 74.3218 45.6793 74.0007 45.6446C73.6796 45.6099 73.4366 45.5231 73.237 45.4536C73.0374 45.4102 72.9159 45.2973 72.8378 45.2192C72.7597 45.1063 72.7163 44.9847 72.7163 44.8719V21.0988C72.7163 20.9772 72.7597 20.8644 72.8378 20.7862C72.8812 20.6647 72.994 20.5952 73.1589 20.5518C73.3238 20.4737 73.5234 20.4389 73.8011 20.3955C74.0788 20.3608 74.3999 20.3608 74.8078 20.3608C75.207 20.3608 75.5281 20.3608 75.8145 20.3955C76.0922 20.4389 76.2918 20.4737 76.4567 20.5518C76.6216 20.5952 76.7344 20.6734 76.8212 20.7862C76.8646 20.8644 76.8993 20.9772 76.8993 21.1335V23.1219C77.42 22.6183 77.906 22.1494 78.3833 21.7934C78.904 21.4027 79.39 21.0554 79.9107 20.821C80.3967 20.5518 80.9174 20.3521 81.4728 20.2392C81.9935 20.1264 82.601 20.0482 83.1998 20.0482C84.4842 20.0482 85.569 20.2826 86.489 20.7862C87.3742 21.2551 88.0945 21.915 88.6586 22.7746C89.2574 23.6341 89.6652 24.6066 89.8996 25.744C90.1773 26.8814 90.2988 28.0883 90.2988 29.3734ZM112.819 22.7051C112.819 23.174 112.819 23.5213 112.776 23.8338C112.732 24.1117 112.698 24.3374 112.654 24.4937C112.611 24.6934 112.533 24.8063 112.455 24.841C112.377 24.9192 112.255 24.9626 112.134 24.9626C112.012 24.9626 111.891 24.9278 111.769 24.8844C111.648 24.841 111.491 24.8063 111.327 24.7281C111.17 24.6934 111.005 24.65 110.806 24.6153C110.606 24.5371 110.363 24.5371 110.164 24.5371C109.886 24.5371 109.6 24.5805 109.322 24.6934C109.044 24.8063 108.758 24.9626 108.48 25.197C108.159 25.4314 107.881 25.744 107.56 26.0913C107.239 26.482 106.875 26.9509 106.519 27.5326V38.1168C106.519 38.2731 106.475 38.3512 106.397 38.4641C106.319 38.5422 106.198 38.6204 105.998 38.6985C105.798 38.7766 105.555 38.8201 105.234 38.8548C104.957 38.8895 104.549 38.8895 104.071 38.8895C103.585 38.8895 103.186 38.8895 102.865 38.8548C102.544 38.8201 102.301 38.7766 102.101 38.6985C101.902 38.6204 101.78 38.5422 101.702 38.4641C101.624 38.3425 101.581 38.2731 101.581 38.1168V21.0988C101.581 20.9772 101.624 20.8644 101.702 20.7862C101.746 20.6647 101.867 20.5952 102.023 20.5518C102.223 20.4737 102.422 20.4389 102.709 20.3955C102.952 20.3608 103.308 20.3608 103.716 20.3608C104.115 20.3608 104.479 20.3608 104.757 20.3955C105 20.4389 105.234 20.4737 105.399 20.5518C105.521 20.5952 105.642 20.6734 105.72 20.7862C105.764 20.8644 105.798 20.9772 105.798 21.0988V23.2434C106.241 22.5835 106.684 22.0713 107.083 21.6805C107.482 21.2551 107.881 20.9425 108.246 20.6647C108.61 20.4302 108.966 20.274 109.365 20.1958C109.73 20.0743 110.086 20.0395 110.45 20.0395C110.615 20.0395 110.815 20.0395 111.014 20.0743C111.179 20.0743 111.413 20.1177 111.613 20.1524C111.813 20.1871 112.012 20.2653 112.134 20.3087C112.29 20.3434 112.411 20.4302 112.498 20.4997C112.576 20.5344 112.62 20.6213 112.654 20.6994C112.698 20.7775 112.698 20.8904 112.732 21.012C112.776 21.1335 112.776 21.368 112.811 21.5937C112.819 21.8802 112.819 22.2362 112.819 22.7051ZM32.9519 35.4252C32.9519 35.7377 32.9519 36.0069 32.9085 36.2413C32.9085 36.4758 32.8651 36.6668 32.8304 36.8231C32.8304 36.9793 32.787 37.0922 32.7089 37.1704C32.6655 37.2832 32.5874 37.4048 32.4312 37.5611C32.2663 37.6826 31.9886 37.8737 31.6328 38.0734C31.2336 38.3078 30.8257 38.4641 30.3484 38.6551C29.8624 38.8114 29.3417 38.9677 28.7429 39.0458C28.1788 39.1674 27.6147 39.2021 27.0159 39.2021C25.6533 39.2021 24.4471 39.0024 23.4404 38.5769C22.3989 38.1862 21.5138 37.5611 20.7934 36.7796C20.1079 35.9982 19.5524 35.0258 19.2313 33.8536C18.8668 32.7249 18.6672 31.4311 18.6672 29.9551C18.6672 28.2359 18.9102 26.7512 19.3094 25.5443C19.752 24.294 20.3942 23.2434 21.1579 22.462C21.9564 21.6458 22.8849 21.0207 23.9263 20.6299C25.0111 20.2392 26.1741 20.0482 27.4585 20.0482C27.9792 20.0482 28.4999 20.0829 29.0206 20.1698C29.5066 20.2826 29.9839 20.4042 30.4265 20.5605C30.8691 20.7168 31.2683 20.8731 31.5894 21.0641C31.9539 21.2551 32.1882 21.4114 32.3097 21.5677C32.4746 21.6892 32.5874 21.8021 32.6308 21.915C32.6742 21.9931 32.7523 22.1147 32.7523 22.2623C32.7957 22.4186 32.8304 22.6183 32.8304 22.844C32.8738 23.0437 32.8738 23.3129 32.8738 23.6255C32.8738 24.3635 32.8304 24.9105 32.6742 25.1883C32.5527 25.5009 32.3965 25.6572 32.1882 25.6572C31.9452 25.6572 31.7022 25.579 31.4679 25.388C31.2249 25.2317 30.9038 24.9973 30.5827 24.8063C30.2616 24.5719 29.819 24.3808 29.3764 24.2246C28.8904 24.0335 28.335 23.9554 27.6928 23.9554C26.4084 23.9554 25.4104 24.4243 24.7248 25.3967C24.0826 26.3344 23.7181 27.741 23.7181 29.6078C23.7181 30.5021 23.7962 31.3269 23.9611 32.0302C24.1607 32.7335 24.4037 33.3153 24.7248 33.7841C25.0893 34.253 25.4885 34.6003 25.9658 34.8347C26.4865 35.0692 27.094 35.182 27.7362 35.182C28.4218 35.182 29.0206 35.0605 29.4979 34.8695C29.9839 34.6784 30.4178 34.4787 30.7823 34.2096C31.1468 33.9752 31.4679 33.7841 31.7022 33.5844C31.9452 33.35 32.1448 33.2719 32.301 33.2719C32.4225 33.2719 32.544 33.3153 32.6221 33.35C32.7002 33.4281 32.7436 33.541 32.787 33.6973C32.8651 33.8883 32.8651 34.1228 32.9085 34.3572C32.9519 34.6437 32.9519 34.991 32.9519 35.4252Z" fill="white"/>
<path d="M237.649 51.7311H239.09V46.8515C239.09 46.5823 239.107 46.3653 239.185 46.1482C239.463 45.3581 240.183 44.6982 241.112 44.6982C242.466 44.6982 242.943 45.7835 242.943 47.0859V51.7311H244.384V46.9123C244.384 44.1338 242.683 43.4653 241.615 43.4653C241.077 43.4653 240.565 43.6129 240.14 43.8647C239.697 44.1165 239.342 44.4985 239.107 44.9153H239.073V39.8533H237.632V51.7311H237.649ZM235.714 50.3419C235.306 50.5243 234.768 50.724 233.944 50.724C232.373 50.724 231.193 49.5692 231.193 47.7024C231.193 46.0266 232.173 44.6461 233.987 44.6461C234.768 44.6461 235.315 44.8458 235.653 45.0281L235.983 43.9081C235.593 43.691 234.838 43.474 233.987 43.474C231.401 43.474 229.735 45.2973 229.735 47.7892C229.735 50.2638 231.288 51.9222 233.675 51.9222C234.742 51.9222 235.575 51.6356 235.948 51.4533L235.714 50.3419ZM225.135 51.7311H226.576V47.4159C226.576 47.1814 226.593 46.9296 226.628 46.7299C226.827 45.6272 227.539 44.8545 228.563 44.8545C228.754 44.8545 228.91 44.8545 229.049 44.8892V43.5C228.919 43.4826 228.806 43.4653 228.659 43.4653C227.695 43.4653 226.81 44.1512 226.446 45.2365H226.393L226.333 43.6302H225.074C225.126 44.3856 225.144 45.2018 225.144 46.1569V51.7311H225.135ZM221.421 49.0048C221.421 49.135 221.403 49.3087 221.351 49.4737C221.126 50.1596 220.449 50.8281 219.407 50.8281C218.687 50.8281 218.062 50.394 218.062 49.4216C218.062 47.85 219.841 47.5635 221.412 47.5982V49.0048H221.421ZM222.809 46.7647C222.809 45.1584 222.219 43.474 219.798 43.474C218.8 43.474 217.837 43.7605 217.177 44.1772L217.507 45.1671C218.062 44.785 218.835 44.568 219.581 44.568C221.204 44.5506 221.377 45.7749 221.377 46.426V46.591C218.323 46.5737 216.622 47.6416 216.622 49.6039C216.622 50.776 217.437 51.9308 219.043 51.9308C220.171 51.9308 221.022 51.3578 221.464 50.724H221.516L221.629 51.7398H222.922C222.844 51.1841 222.809 50.5069 222.809 49.8036V46.7647ZM209.87 46.9036C209.983 45.8877 210.607 44.5332 212.083 44.5332C213.706 44.5332 214.096 45.9832 214.079 46.9036H209.87ZM215.415 47.9542C215.45 47.7892 215.467 47.5722 215.467 47.2683C215.467 45.7835 214.799 43.474 212.196 43.474C209.887 43.474 208.481 45.3841 208.481 47.824C208.481 50.2638 209.939 51.9222 212.378 51.9222C213.636 51.9222 214.521 51.6356 215.025 51.4012L214.764 50.3506C214.244 50.585 213.602 50.7674 212.569 50.7674C211.111 50.7674 209.887 49.9512 209.852 47.9629H215.415V47.9542ZM202.033 51.3491C202.589 51.6877 203.387 51.9222 204.255 51.9222C206.103 51.9222 207.197 50.915 207.197 49.4823C207.197 48.2755 206.477 47.5722 205.123 47.0599C204.09 46.6431 203.63 46.3392 203.63 45.6707C203.63 45.0716 204.09 44.568 204.94 44.568C205.678 44.568 206.251 44.8545 206.563 45.0542L206.91 43.9862C206.485 43.6997 205.782 43.4826 204.984 43.4826C203.3 43.4826 202.25 44.5506 202.25 45.853C202.25 46.8255 202.918 47.6069 204.359 48.1452C205.409 48.5446 205.817 48.918 205.817 49.6126C205.817 50.2985 205.322 50.8195 204.298 50.8195C203.578 50.8195 202.823 50.5156 202.38 50.2464L202.033 51.3491ZM195.195 46.9036C195.307 45.8877 195.932 44.5332 197.408 44.5332C199.03 44.5332 199.421 45.9832 199.404 46.9036H195.195ZM200.74 47.9542C200.775 47.7892 200.792 47.5722 200.792 47.2683C200.792 45.7835 200.124 43.474 197.52 43.474C195.212 43.474 193.806 45.3841 193.806 47.824C193.806 50.2638 195.264 51.9222 197.703 51.9222C198.961 51.9222 199.846 51.6356 200.35 51.4012L200.089 50.3506C199.569 50.585 198.926 50.7674 197.894 50.7674C196.436 50.7674 195.212 49.9512 195.177 47.9629H200.74V47.9542ZM186.976 41.6332C187.219 41.5638 187.696 41.5204 188.382 41.5204C189.883 41.5204 190.916 42.1542 190.916 43.6129C190.916 44.8979 189.953 45.7488 188.425 45.7488H186.967V41.6332H186.976ZM185.553 51.7311H186.976V46.8515H188.321C189.614 46.9036 190.222 47.4853 190.543 49.0395C190.838 50.4461 191.081 51.3925 191.263 51.7311H192.739C192.513 51.297 192.253 50.2117 191.888 48.6401C191.628 47.468 191.116 46.6692 190.283 46.3653V46.3132C191.428 45.9138 192.339 44.924 192.339 43.4566C192.339 42.571 192.01 41.7982 191.472 41.3033C190.803 40.6868 189.805 40.3829 188.278 40.3829C187.315 40.3829 186.265 40.4871 185.544 40.6174V51.7311H185.553ZM173.29 43.6389L176.206 51.0973C176.284 51.2796 176.319 51.4012 176.319 51.4793C176.319 51.5662 176.267 51.679 176.206 51.8266C175.859 52.582 175.39 53.1464 174.991 53.4677C174.566 53.8323 174.089 54.0668 173.733 54.1883L174.089 55.4039C174.445 55.3344 175.139 55.0826 175.859 54.4662C176.84 53.5805 177.543 52.174 178.575 49.4042L180.736 43.6389H179.218L177.647 48.3883C177.447 48.9701 177.282 49.5952 177.135 50.0814H177.1C176.97 49.5952 176.77 48.9614 176.579 48.4231L174.861 43.6389H173.29ZM172.11 50.3419C171.702 50.5243 171.164 50.724 170.34 50.724C168.769 50.724 167.589 49.5692 167.589 47.7024C167.589 46.0266 168.569 44.6461 170.383 44.6461C171.164 44.6461 171.711 44.8458 172.049 45.0281L172.379 43.9081C171.989 43.691 171.234 43.474 170.383 43.474C167.797 43.474 166.131 45.2973 166.131 47.7892C166.131 50.2638 167.684 51.9222 170.071 51.9222C171.138 51.9222 171.971 51.6356 172.344 51.4533L172.11 50.3419ZM163.605 40.4698C163.067 40.4698 162.703 40.8865 162.703 41.3901C162.703 41.8937 163.05 42.2931 163.571 42.2931C164.143 42.2931 164.49 41.8937 164.49 41.3901C164.49 40.8692 164.126 40.4698 163.605 40.4698ZM164.326 51.7311V43.6389H162.885V51.7311H164.326ZM159.023 51.7311H160.464V39.862H159.023V51.7311ZM153.365 44.5766C155.066 44.5766 155.734 46.2958 155.734 47.6677C155.734 49.491 154.701 50.8108 153.33 50.8108C151.924 50.8108 150.943 49.4737 150.943 47.7024C150.943 46.1829 151.681 44.5766 153.365 44.5766ZM153.391 43.474C151.212 43.474 149.468 45.0629 149.468 47.7545C149.468 50.3159 151.134 51.9135 153.261 51.9135C155.161 51.9135 157.201 50.6111 157.201 47.6156C157.209 45.1671 155.664 43.474 153.391 43.474ZM143.22 41.6506C143.463 41.5811 143.94 41.5377 144.565 41.5377C146.118 41.5377 147.168 42.2584 147.168 43.7605C147.168 45.2799 146.118 46.1482 144.4 46.1482C143.923 46.1482 143.532 46.1135 143.22 46.0266V41.6506ZM141.796 51.7311H143.22V47.2162C143.549 47.303 143.94 47.3204 144.365 47.3204C145.754 47.3204 146.969 46.9036 147.732 46.0874C148.288 45.5057 148.583 44.6982 148.583 43.6823C148.583 42.6752 148.21 41.859 147.62 41.3293C146.969 40.7302 145.936 40.3916 144.53 40.3916C143.385 40.3916 142.482 40.4958 141.796 40.6087V51.7311ZM230.143 23.8078V25.3099H228.919V26.4299H230.143V30.8494C230.143 31.7958 230.307 32.5165 230.698 32.968C231.045 33.35 231.583 33.5844 232.251 33.5844C232.807 33.5844 233.249 33.4802 233.527 33.3847L233.466 32.2647C233.249 32.3341 233.024 32.3689 232.633 32.3689C231.835 32.3689 231.548 31.8045 231.548 30.7973V26.4386H233.614V25.3186H231.548V23.3823L230.143 23.8078ZM220.796 33.4021H222.237V28.5398C222.237 28.288 222.271 28.0362 222.332 27.8539C222.592 27.0377 223.33 26.3518 224.259 26.3518C225.612 26.3518 226.09 27.4371 226.09 28.7395V33.4021H227.53V28.5919C227.53 25.8135 225.829 25.1449 224.736 25.1449C223.425 25.1449 222.514 25.9003 222.115 26.647H222.08L222.002 25.3099H220.726C220.779 25.9784 220.787 26.647 220.787 27.4979V33.4021H220.796ZM213.419 28.5659C213.532 27.55 214.157 26.1955 215.632 26.1955C217.255 26.1955 217.646 27.6455 217.628 28.5659H213.419ZM218.965 29.6252C218.999 29.4602 219.017 29.2431 219.017 28.9392C219.017 27.4545 218.349 25.1449 215.745 25.1449C213.437 25.1449 212.031 27.0551 212.031 29.4949C212.031 31.9347 213.489 33.5931 215.927 33.5931C217.186 33.5931 218.071 33.3066 218.574 33.0722L218.314 32.0216C217.793 32.256 217.151 32.4383 216.118 32.4383C214.66 32.4383 213.437 31.6222 213.402 29.6338H218.965V29.6252ZM198.952 33.4021H200.358V28.5398C200.358 28.288 200.393 28.0189 200.471 27.8192C200.697 27.0811 201.374 26.3518 202.259 26.3518C203.352 26.3518 203.908 27.2722 203.908 28.5572V33.4021H205.314V28.4009C205.314 28.1317 205.366 27.8799 205.426 27.6629C205.687 26.9596 206.312 26.3431 207.145 26.3431C208.29 26.3431 208.863 27.2635 208.863 28.835V33.4021H210.269V28.6527C210.269 25.8482 208.716 25.1449 207.648 25.1449C206.893 25.1449 206.39 25.3446 205.912 25.7093C205.583 25.9611 205.262 26.291 205.01 26.7599H204.975C204.628 25.8048 203.812 25.1362 202.754 25.1362C201.426 25.1362 200.697 25.8569 200.254 26.621H200.202L200.133 25.3012H198.874C198.909 25.9698 198.944 26.6383 198.944 27.4892V33.4021H198.952ZM191.072 28.7048C191.072 28.5225 191.124 28.3054 191.168 28.1231C191.428 27.0204 192.365 26.3171 193.346 26.3171C194.865 26.3171 195.698 27.7063 195.698 29.3126C195.698 31.1707 194.813 32.4383 193.294 32.4383C192.261 32.4383 191.393 31.735 191.133 30.7192C191.081 30.5368 191.064 30.3371 191.064 30.1201V28.7048H191.072ZM189.649 36.7102H191.072V32.3168H191.107C191.584 33.1156 192.496 33.5844 193.546 33.5844C195.412 33.5844 197.156 32.1431 197.156 29.2344C197.156 26.7946 195.715 25.1362 193.789 25.1362C192.496 25.1362 191.55 25.7006 190.977 26.6904H190.942L190.864 25.3012H189.588C189.623 26.074 189.658 26.9075 189.658 27.9407V36.7102H189.649ZM183.991 26.2476C185.692 26.2476 186.36 27.9668 186.36 29.3386C186.36 31.162 185.327 32.4817 183.956 32.4817C182.55 32.4817 181.57 31.1446 181.57 29.3734C181.57 27.8539 182.298 26.2476 183.991 26.2476ZM184.017 25.1449C181.839 25.1449 180.094 26.7338 180.094 29.4255C180.094 31.9868 181.76 33.5844 183.887 33.5844C185.787 33.5844 187.827 32.282 187.827 29.2865C187.835 26.8293 186.291 25.1449 184.017 25.1449ZM176.805 33.4021H178.246V21.5329H176.805V33.4021ZM169.428 28.5659C169.541 27.55 170.166 26.1955 171.633 26.1955C173.256 26.1955 173.646 27.6455 173.629 28.5659H169.428ZM174.974 29.6252C175.009 29.4602 175.026 29.2431 175.026 28.9392C175.026 27.4545 174.358 25.1449 171.754 25.1449C169.446 25.1449 168.04 27.0551 168.04 29.4949C168.04 31.9347 169.498 33.5931 171.936 33.5931C173.195 33.5931 174.08 33.3066 174.583 33.0722L174.323 32.0216C173.802 32.256 173.16 32.4383 172.127 32.4383C170.669 32.4383 169.446 31.6222 169.411 29.6338H174.974V29.6252ZM159.926 25.3099L162.937 33.4021H164.308L167.415 25.3099H165.914L164.378 29.8422C164.117 30.5976 163.883 31.2662 163.709 31.9347H163.657C163.492 31.2662 163.284 30.5976 163.015 29.8422L161.462 25.3099H159.926ZM153.53 28.5659C153.642 27.55 154.267 26.1955 155.743 26.1955C157.365 26.1955 157.756 27.6455 157.739 28.5659H153.53ZM159.075 29.6252C159.11 29.4602 159.127 29.2431 159.127 28.9392C159.127 27.4545 158.459 25.1449 155.855 25.1449C153.547 25.1449 152.141 27.0551 152.141 29.4949C152.141 31.9347 153.599 33.5931 156.038 33.5931C157.296 33.5931 158.181 33.3066 158.685 33.0722L158.424 32.0216C157.904 32.256 157.261 32.4383 156.229 32.4383C154.771 32.4383 153.547 31.6222 153.512 29.6338H159.075V29.6252ZM143.22 23.3563C143.593 23.2695 144.148 23.2087 144.886 23.2087C147.897 23.2087 149.373 24.8931 149.355 27.5587C149.355 30.5976 147.715 32.3428 144.66 32.3428C144.105 32.3428 143.575 32.3254 143.22 32.2734V23.3563ZM141.796 33.3674C142.517 33.4542 143.35 33.4976 144.383 33.4976C146.526 33.4976 148.227 32.9332 149.277 31.874C150.293 30.8407 150.865 29.3299 150.865 27.4979C150.865 25.6746 150.293 24.3722 149.295 23.4518C148.331 22.5488 146.873 22.0452 144.825 22.0452C143.697 22.0452 142.664 22.1494 141.796 22.297V33.3674ZM239.229 15.0731H240.669V10.7578C240.669 10.5234 240.687 10.2716 240.722 10.0719C240.921 8.96917 241.633 8.19641 242.648 8.19641C242.848 8.19641 242.995 8.19641 243.134 8.23114V6.84192C243.004 6.82455 242.891 6.80719 242.744 6.80719C241.78 6.80719 240.895 7.49312 240.539 8.57845H240.487L240.418 6.97216H239.159C239.211 7.72755 239.22 8.54372 239.22 9.49881V15.0731H239.229ZM233.571 7.90988C235.271 7.90988 235.94 9.62905 235.94 11.0009C235.94 12.8243 234.907 14.144 233.536 14.144C232.13 14.144 231.149 12.8069 231.149 11.0356C231.149 9.51617 231.887 7.90988 233.571 7.90988ZM233.605 6.80719C231.427 6.80719 229.683 8.39611 229.683 11.0877C229.683 13.6491 231.349 15.2467 233.475 15.2467C235.376 15.2467 237.415 13.9443 237.415 10.9488C237.415 8.5003 235.879 6.80719 233.605 6.80719ZM227.261 15.0731V8.1009H229.179V6.98084H227.261V6.54671C227.261 5.29641 227.574 4.2024 228.797 4.2024C229.223 4.2024 229.5 4.28923 229.717 4.38473L229.917 3.24731C229.639 3.12575 229.214 3.01288 228.693 3.01288C228.025 3.01288 227.305 3.22994 226.767 3.76827C226.116 4.41947 225.847 5.4527 225.847 6.59012V6.97216H224.753V8.09222H225.847V15.0644H227.261V15.0731ZM208.577 15.0731H209.983V10.2108C209.983 9.95899 210.017 9.68982 210.095 9.49012C210.321 8.7521 210.998 8.02276 211.883 8.02276C212.977 8.02276 213.532 8.94312 213.532 10.2281V15.0731H214.938V10.0719C214.938 9.8027 214.99 9.5509 215.051 9.33384C215.311 8.63054 215.936 8.01408 216.769 8.01408C217.915 8.01408 218.487 8.93444 218.487 10.506V15.0731H219.893V10.3237C219.893 7.51917 218.34 6.81587 217.272 6.81587C216.517 6.81587 216.014 7.01557 215.537 7.38024C215.207 7.63204 214.886 7.96198 214.634 8.43084H214.6C214.252 7.47575 213.437 6.80719 212.378 6.80719C211.05 6.80719 210.312 7.52785 209.878 8.29192H209.826L209.757 6.97216H208.499C208.533 7.64072 208.568 8.30929 208.568 9.16018V15.0731H208.577ZM206.181 6.98084H204.741V11.9299C204.741 12.2165 204.689 12.4856 204.611 12.6853C204.35 13.3539 203.673 14.0398 202.71 14.0398C201.417 14.0398 200.94 12.9892 200.94 11.4524V6.98084H199.499V11.7129C199.499 14.5347 200.992 15.2554 202.233 15.2554C203.639 15.2554 204.489 14.4045 204.845 13.7533H204.88L204.958 15.0731H206.234C206.181 14.4392 206.164 13.7012 206.164 12.8503V6.98084H206.181ZM196.453 3.803C195.915 3.803 195.55 4.21976 195.55 4.72336C195.55 5.22695 195.898 5.62635 196.418 5.62635C196.991 5.62635 197.338 5.22695 197.338 4.72336C197.338 4.2024 196.974 3.803 196.453 3.803ZM197.173 15.0731V6.98084H195.733V15.0731H197.173ZM190.647 5.47006V6.97216H189.423V8.09222H190.647V12.5117C190.647 13.4581 190.812 14.1787 191.203 14.6302C191.55 15.0123 192.088 15.2467 192.756 15.2467C193.311 15.2467 193.754 15.1425 194.032 15.047L193.962 13.927C193.754 13.9964 193.52 14.0311 193.129 14.0311C192.331 14.0311 192.053 13.4668 192.053 12.4596V8.1009H194.11V6.98084H192.053V5.03593L190.647 5.47006ZM184.572 15.0731H186.013V10.7578C186.013 10.5234 186.03 10.2716 186.065 10.0719C186.265 8.96917 186.985 8.19641 188 8.19641C188.2 8.19641 188.347 8.19641 188.486 8.23114V6.84192C188.356 6.82455 188.243 6.80719 188.096 6.80719C187.132 6.80719 186.247 7.49312 185.883 8.57845H185.831L185.761 6.97216H184.503C184.555 7.72755 184.564 8.54372 184.564 9.49881V15.0731H184.572ZM178.914 7.90988C180.615 7.90988 181.283 9.62905 181.283 11.0009C181.283 12.8243 180.25 14.144 178.879 14.144C177.473 14.144 176.493 12.8069 176.493 11.0356C176.493 9.51617 177.23 7.90988 178.914 7.90988ZM178.949 6.80719C176.77 6.80719 175.026 8.39611 175.026 11.0877C175.026 13.6491 176.692 15.2467 178.818 15.2467C180.719 15.2467 182.758 13.9443 182.758 10.9488C182.758 8.5003 181.222 6.80719 178.949 6.80719ZM168.578 14.6823C169.133 15.021 169.932 15.2554 170.8 15.2554C172.648 15.2554 173.742 14.2482 173.742 12.8156C173.742 11.6087 173.021 10.9054 171.667 10.3931C170.635 9.97635 170.175 9.67246 170.175 9.0039C170.175 8.40479 170.635 7.9012 171.485 7.9012C172.223 7.9012 172.796 8.18773 173.108 8.38743L173.455 7.31947C173.03 7.03294 172.327 6.81587 171.529 6.81587C169.845 6.81587 168.795 7.88384 168.795 9.18623C168.795 10.1587 169.463 10.9401 170.904 11.4784C171.954 11.8778 172.362 12.2512 172.362 12.9458C172.362 13.6317 171.867 14.1527 170.843 14.1527C170.123 14.1527 169.368 13.8488 168.925 13.5796L168.578 14.6823ZM160.038 15.0731H161.479V10.2108C161.479 9.95899 161.514 9.70719 161.574 9.52485C161.835 8.70869 162.572 8.02276 163.501 8.02276C164.855 8.02276 165.332 9.10809 165.332 10.4105V15.0731H166.773V10.2542C166.773 7.47575 165.072 6.80719 163.978 6.80719C162.668 6.80719 161.757 7.56258 161.358 8.30928H161.323L161.245 6.97216H159.969C160.021 7.64072 160.038 8.30929 160.038 9.16018V15.0731ZM154.38 7.90988C156.081 7.90988 156.749 9.62905 156.749 11.0009C156.749 12.8243 155.717 14.144 154.345 14.144C152.939 14.144 151.959 12.8069 151.959 11.0356C151.959 9.51617 152.688 7.90988 154.38 7.90988ZM154.406 6.80719C152.228 6.80719 150.475 8.39611 150.475 11.0877C150.475 13.6491 152.141 15.2467 154.267 15.2467C156.168 15.2467 158.207 13.9443 158.207 10.9488C158.225 8.5003 156.68 6.80719 154.406 6.80719ZM149.208 13.5449C148.635 13.8314 147.75 14.0138 146.865 14.0138C144.2 14.0138 142.647 12.2599 142.647 9.48144C142.647 6.52066 144.365 4.83623 146.951 4.83623C147.871 4.83623 148.635 5.03593 149.156 5.30509L149.511 4.11557C149.138 3.91587 148.253 3.61198 146.891 3.61198C143.471 3.61198 141.137 5.98234 141.137 9.53354C141.137 13.241 143.463 15.2467 146.57 15.2467C147.915 15.2467 148.973 14.9775 149.485 14.7084L149.208 13.5449Z" fill="black"/>
</svg>
