<svg xmlns="http://www.w3.org/2000/svg" width="533" height="187">
  <path fill="#012069" d="M0 177.982h4.236V0H0Zm0 0"/>
  <path d="M89.832 64.48s-.382 2.156-.358 2.343l-.646-.117c-.016.016.397-1.9.498-2.312a1.449 1.449 0 0 0-.763.07v-.008l.257-.537 1.767.311.125.6c-.156-.14-.63-.304-.88-.35m-1.542.116c-.07.498-.296 1.518-.21 1.993l-.654-.093c.288-.74.49-1.986.444-2.772l.654.093a2.695 2.695 0 0 0-.234.78m-1.744 1.65c-1.666.311-1.666-2.507-.327-2.905 1.674-.35 1.69 2.516.327 2.905m-1.44-2.227c-.078.32-.312.537-.701.662.163.553.265.732.553 1.339v.008l-.444-.07c-.094-.047-.646-.826-.81-1.246-.101.343-.195.786-.156 1.098l-.755-.117c.14-.218.724-2.515.7-2.756.655.085 1.815.202 1.613 1.082m-3.232 1.3c-.397.133-.957-.023-1.362-.1l.553-2.812c1.822-.117 2.577 2.243.81 2.912m-2.594-.241c-.202-.047-1.3-2.282-1.3-2.282s-.265 1.737-.335 1.861l-.498-.07.568-2.733.553.078c.008.07.88 1.916.88 1.916s.288-1.495.312-1.628l.428.117zm-2.289-1.768c-.592 2.017-2.92.92-2.227-.88.584-1.954 2.912-.918 2.227.88m-2.43-2.172c-.1.093-.45 2.546-.427 2.788l-.662-.125c.124-.218.28-1.931.28-1.931l-1.137 1.767-.67-1.993s-.264 1.433-.28 1.892l-.646-.093c.21-.335.615-2.858.615-2.858l.67.125c.023.132.53 1.845.53 1.845s.887-1.495.941-1.573l.787.148zm16.29 1.736c-.825 0-1.604-.016-1.985-.046-4.33-.42-8.62-1.659-12.942-2.344-1.245-.195-2.265-.382-3.145-.382-1.838 0-3.084.795-4.563 3.948-.623 1.192 1.48 2.336 1.947 2.383-1.737-1.48-1.13-1.916.24-1.916 1.885 0 5.233.841 5.895.92 3.956.63 7.958 1.759 11.976 2.195.14.008.28.016.405.016 2.959 0 2.818-3.224 4.85-4.828-.358.031-1.557.055-2.678.055m-14.7-1.099c-1.029-.28-1.426 1.846-.561 2.204 1.05.28 1.425-1.838.56-2.204m7.896 1.558-.296 1.09c.833.156 1.199-.95.296-1.09m2.577.39c-.981-.242-1.3 1.806-.483 2.133 1.005.24 1.308-1.8.483-2.134m-5.046-.88c-.14.553-.358 1.58-.428 2.141 1.293.273 1.69-1.884.428-2.14M49.95 61.247l.49 2.5-.576.1-.506-2.483c-.35.07-.553.07-1.028.272l-.016-.56 2.476-.32.172.475c-.226-.085-1.013.016-1.013.016m-1.814 2.928-1.713.397c.031-.257-.545-2.663-.693-2.88l1.807-.421-.14.607a1.975 1.975 0 0 0-.88.008l.21.872.997-.233.17.428c-.202-.031-.809.125-1.082.171l.219.911c.49-.109.903-.28 1.222-.498h.008zm-4.983.896c-1.254.03-1.433-1.76-1.729-2.64l.608-.117c.296.763.21 2.57 1.502 2.328.935-.42.18-1.9.078-2.616l.6-.078c.226 1.184.77 3.247-1.059 3.123m-1.76.272-1.72.382c.03-.265-.522-2.671-.662-2.897l1.806-.397-.14.607c-.257-.07-.553-.07-.888-.008l.203.88 1.004-.226.164.429c-.203-.031-.802.116-1.083.163l.21.919c.491-.117.904-.273 1.223-.498l.008.008zm-3.223.693c.039-.849-.242-2.188-.631-2.951l.84-.171c-.038.849.242 2.188.632 2.95zm-.849-.514c-.358.849-1.425 1.044-2.258 1.192.039-.265-.467-2.718-.623-2.944 1.44-.623 3.504-.023 2.881 1.752m13.829-5.45c-6.564.016-13.113 2.818-19.684 2.818-.787 0-1.573-.039-2.36-.132 2.033 1.604 1.892 4.828 4.851 4.828.125 0 .265 0 .405-.016 4.018-.429 8.02-1.565 11.976-2.196.685-.101 3.963-.903 5.878-.903.693 0 1.207.101 1.363.381.21.382-1.098 1.48-1.106 1.526 0 .008.008.016.016.016.133 0 .857-.42 1.394-.778 2.141-1.534-2.351-5.544-2.733-5.544m-14.911 4.033c-.265-.164-.592-.218-.981-.156.078.592.296 1.682.467 2.25 1.09-.155 1.417-1.526.514-2.094m25.89-4.875c.817-.732 1.386-.988 2.445-1.238-.296.654-.576 1.277-.864 1.94-.53-.234-1.052-.468-1.581-.702m-.21-15.837h11.594c.95 8.86-4.244 11.827-11.594 14.919zm17.138-4.75c-.273-.576-.896-3.784-1.791-3.091 4.103 7.662 1.362 17.737-5.754 22.588-2.087 1.262-4.688 3.356-7.156 1.962 1.596-6.213 9.242-3.597 10.9-15.44-.202-.101-.28-.163-.466-.202a20.34 20.34 0 0 1-1.277 4.78c.67-1.767.241-7.288.366-7.591-.07-.094-.14-.125-.366-.405.039.67 0 .91.008 1.79H61.918v-12.1h11.384v6.83c-.008.038.046.357.07.482.163-.25.171-.241.288-.327v-7.335H49.77l-.023 6.183h.358v-5.833H61.56v12.1H50.51c-.03.04.009-.186-.03-.155 0-.031-.07.187-.07.156h-.312c-.008-.561.008-.911.008-.927l-.358-.016c-.257.911.506 8.503 1.752 9.834-2.5-2.414-3.286-6.704-2.811-9.943 0 0-.234-.179-.49-.413-.787 4.555.934 9.048 4.126 12.31.28.297.584-.023.927-.108-.07-.07-.218-.187-.32-.335.125.132.234.249.32.335l-.18-.49c-2.506-1.916-2.911-7.382-2.966-9.89H61.56s-.008 15.176-.016 15.207c-2.437-.117-4.08-2.764-6.44-2.795 3.388 2.001 9.562 6.836 13.471 4.718.031.04.023.032.055.07-.413.515-1.854 1.488-2.5 1.239-1.067-.639-2.71.521-1.954 1.713.101.132.155.257.046.444-4.22-.398-8.02-2.92-11.578-5.085-.031.039-.031.039-.062.07 1.362 1.846 6.237 4.135 6.237 4.135l-.008 2.733.521.35v-2.966c1.277.443 3.862 1.253 3.862 1.253l.008 1.846.499-.312-.031-1.386.693-.187a.916.916 0 0 0 .661-.988.52.52 0 0 1-.288-.6c.102-.545.756-.553 1.02-.226.53.234 1.052-.405 1.573-.553.732-.443 1.643-.84 1.978-1.69a.743.743 0 0 1 .358-.435c1.487-.85 2.92-1.776 4.127-2.99 5.17-4.369 6.977-11.882 5.264-18.314m-10.87 7.63c-.055-.046-.195.009-.21.047.007.273-.289.195-.374.382.054.117.14.21.264.202.156-.016.14.18.288.187.678-.311 1.488-.233 2.064-.763-.218-.179-.265-.436-.32-.7-.389.03-.77-.024-1.105.163-.039.179.086.272.179.428-.28.117-.53.18-.786.054m-.779-8.813c-.506-.024-.903-.063-.755.545.023.14.078.584.163.685.04.062.031.124-.016.163-.202.117-.98-.202-.887-.467 0-.218-.219-.272-.289-.117-.03.07-.085.07-.163-.016-.148-.21-.343.07-.265.226.031.062-.008.125-.078.14-.218.086-.202.382.094.39.646.303 1.214.615 1.97.506l-.008.008c.817-.07.397-.226.358-.802-.14-.615.911-1.02-.125-1.262m1.55-1.152.28.576s.593.265.678.343c.335.241.28.919-.023.84-.498-.194-.794-.895-1.137-1.33-.086-.07-.327-.771-.483-.592-2.032.451.374.973 0 1.736-.07.101-.296.63-.202.716.171.203.553.359.755.623.335.327.039.701-.374.397-.233-.17-.514.078-.272.32.016.039-.14.109-.171.124-.242.335.155.32.373.148.117-.054-.008.296.195.242.374-.086.942-.273 1.051-.857.234-.53-.303-.444-.436-.911-.132-.195-.148-.895.148-.638.265.342.63.537.958.233.311-.288.031-.989-.132-1.292-.289-.616-.631-1.207-.608-1.947.413-.49.896.39 1.184-.973-.966.062-1.916.708-1.433 1.79.288.616.226.569-.35.452m-2.095.413c.117-.117.467-.452.498-.53.04-.07.047-.078.296-.1.662-.094 1.005-.367 1.191-1.083.094-.218-.023-.678-.163-.779-.054-.039-.078-.109-.039-.132.125-.024.382-.125.428-.265-.078-.14-.249-.039-.482-.109-.172-.086-.631-.226-.818-.125-.132.164-.911.18-.77.413.022.086.085.28.085.28l.35.047.008.257s-.257.054-.342.07c-.203.312.514.335.7.094.125-.148.327-.172.32-.008-.102.202-.444.311-.639.412-.303.047-.381.639-.615.834-.654.116-.888.1-1.534-.421-.233-.272-.42-.07-.249.148-.11.031-.709-.304-.436.272l.039.055c-.296.428.148.28.39.413.529.21 1.105.366 1.782.257m-1.83-2.632c.195.125.343.693.46.779.225.288.692 1.074 1.144.91v-.007c.132-.055.265-.452.273-.506 0-.016-.078-.086-.164-.156-.428-.366-.693-.74-.7-1.082-.017-.11.24-.257.225-.366-.008-.39-.335.054-.46-.008-.07-.117-.31-.436-.459-.28-.093.046.024.272-.054.326-.031.047-.054.055-.156.047-.342 0-.389.21-.109.343m-13.011 6.463a.966.966 0 0 1-.14-.172c-.016.164.07.35.046.514-.023.125-.062.32-.1.436.21.203.326.226.56.148-.031-.327-.11-.7-.366-.926m5.053.81c-.039.21.148.295.18.459-.242.148-.499.156-.748.195-.132-.133-.187-.374-.42-.304-.133.031-.063.171-.164.226-.257-.024-.257-.024-.296.241.086.047.164.094.241.14-.194.92 2.313-.039 2.687-.311-.125-.203-.28-.343-.327-.584-.102-.405-.849-.078-1.153-.062m-4.344-1.573c-.398.732-.28 1.393.194 2.009.888.03 1.254-1.184 1.106-1.916.093-.07.179-.125.272-.195-.023-.093-.046-.17-.07-.264-.163-.008-.311-.008-.451-.016-.32-.413-.514-.42-.896-.055-.264-.093-.264-.093-.444.14.07.133.156.234.289.296m7.28 1.09c-.265.125-.608.242-.81-.07.452-.186 1.012-.14 1.324-.56.226-.28.202-.841-.234-.997-1.144-.311-2.351.265-3.504.366-2.172.584-.623-.467-2.343-.46.615 1.76 2.468.632 3.745.5-.094.21-.304.287-.39.474.46-.086 1.052.086 1.394-.265.171-.49 1.324-.545 1.051.11-1.082 1.058-4.477.07-5.98.747-.225.693-.63 1.145-1.284 1.331-.545-.327-.787.055-1.324-.1-.054-.055-.101-.118-.163-.164-.016-.008-.032-.016-.04-.031-.023-.008-.038-.024-.062-.032 0 .008.008.016.008.032.008.311-.07.623-.194.91.7.273 1.471-.062 2.164-.249.28-.085.444-.373.748-.366.732.055 1.152-.56 1.783-.74.779-.147 1.565-.272 2.36-.256.91 1.246 1.074.187 1.891.607l-.07.374c.078.023.148.047.21.07-.078.312.382.49.444.094.008-.04-.016-.102.055-.11.482-.264-.265-1.557-.78-1.214m-7.723-3.154c-.031-.319-.11-.7-.366-.919-.28-.295-.374-.7-.086-1.012-.14-.14-.335-.03-.475-.226-.187-.21-.296.031-.335.25-.514.077-.218.249-.101.521.163.467.77 1.596 1.363 1.386m4.695-.109c-.039.203.148.288.18.452-.242.156-.5.163-.748.195-.133-.133-.195-.374-.42-.304-.133.031-.063.171-.164.226-.257-.024-.257-.024-.296.241.078.047.163.101.241.14-.195.927 2.313-.03 2.686-.311-.124-.203-.28-.343-.327-.584-.1-.405-.848-.07-1.152-.055m-4.345-1.58c-.405.731-.288 1.393.187 2.008.895.032 1.254-1.183 1.113-1.915.094-.07.18-.125.273-.195a3.48 3.48 0 0 1-.078-.264c-.156-.008-.304-.008-.444-.016-.327-.413-.521-.429-.903-.055-.257-.093-.257-.093-.436.133a.55.55 0 0 0 .288.303m7.288 1.09c-.264.125-.615.25-.817-.07.451-.178 1.012-.14 1.323-.56.234-.28.21-.849-.233-.997-1.145-.319-2.352.265-3.504.366-2.172.584-.623-.467-2.344-.46.615 1.76 2.46.631 3.753.5-.093.21-.303.287-.389.474.452-.086 1.051.086 1.386-.265.179-.49 1.324-.545 1.059.11-1.09 1.066-4.485.07-5.996.747-.225.693-.623 1.152-1.284 1.34-.46-.281-.701-.055-1.098-.071.016.132.054.257.085.382.032.124.047.256.063.389.451-.047.91-.226 1.347-.343.28-.085.436-.366.747-.366.732.055 1.153-.56 1.783-.74.779-.147 1.565-.264 2.36-.256.91 1.245 1.082.186 1.892.615a3.824 3.824 0 0 1-.07.366c.085.023.147.054.218.07-.086.311.381.49.443.101.008-.046-.016-.109.047-.117.49-.264-.257-1.55-.77-1.214m-7.515-3.41c-.03-.32-.109-.694-.358-.912-.288-.296-.381-.693-.085-1.004-.148-.14-.335-.024-.483-.218-.18-.21-.288.03-.327.249-.506.07-.218.234-.102.506.164.467.764 1.588 1.355 1.378m4.657-.109c-.047.203.14.288.179.452-.242.148-.49.156-.748.195-.132-.133-.187-.374-.42-.304-.133.031-.055.171-.156.226-.25-.024-.25-.024-.296.241.078.039.164.094.242.14-.195.911 2.297-.039 2.662-.311-.116-.203-.272-.343-.319-.584-.101-.397-.84-.07-1.144-.055m-4.314-1.565c-.397.724-.28 1.386.195 1.993.88.032 1.238-1.175 1.098-1.9.085-.07.179-.124.264-.186-.023-.101-.046-.18-.07-.265l-.444-.023c-.319-.413-.514-.42-.895-.047-.257-.101-.257-.101-.436.132.07.133.156.234.288.296m-1.869 2.67c.117.009.226-.124.343-.007-.016.054-.023.117-.031.179.708.311 1.487-.039 2.188-.234.28-.085.444-.366.747-.358.724.055 1.145-.56 1.768-.732.77-.148 1.55-.272 2.343-.257.904 1.238 1.067.187 1.877.608-.023.116-.047.233-.07.366.085.023.148.046.21.07-.078.311.382.482.444.093.008-.046-.016-.101.046-.109.491-.265-.257-1.542-.763-1.207-.264.125-.607.242-.81-.07.444-.179 1.005-.14 1.309-.56.233-.28.21-.834-.226-.982-1.137-.319-2.336.257-3.48.359-2.157.584-.616-.468-2.329-.452.615 1.744 2.453.623 3.722.498-.086.203-.296.28-.381.467.451-.093 1.043.078 1.378-.272.171-.475 1.316-.537 1.043.117-1.074 1.05-4.446.07-5.94.74-.227.685-.616 1.144-1.278 1.33-.537-.334-.778.048-1.308-.1-.156-.172-.304-.35-.537-.172v.25c-.25-.078-.537.272-.265.436M62.431 48.68c.296.451.382 1.175.888 1.44.234 0 .584.21.724-.062-.148-.545-.817-.857-.724-1.472.031-.14-.016-.28-.14-.412-.257.078-.794-.506-.6.186-.163.055-.257.172-.148.32m1.565-2.367c-.038-.701-.848-1.153-.607-1.854a.31.31 0 0 0-.086-.389c-.233.062-.233.062-.42-.047-.296-.155-.343.18-.311.398-.063.023-.117.054-.203.093.21.6.841 2.102 1.627 1.799m0 8.316c-.264-.499-.67-.966-.856-1.495.226-.32.125-.732-.304-.468-.109-.225-.272-.264-.475-.21-.054.14-.085.28.07.382.009.008-.007.046-.007.07l-.14.046c-.11.273.17.437.272.655.296.475.74 1.627 1.44 1.02m2.967-4.252c-.171 0-.202.218-.086.32.11.124.226-.009.35.023.009.078.009.14.017.194.7.04 1.752-.584 2.125-1.144a51.111 51.111 0 0 0-.436-.678c-.381.125-.81.117-1.035.452.132.148.257.273.39.413-.258.148-.554.381-.834.155-.11-.1-.428-.054-.35.14.008.032-.008.07-.008.11-.055.008-.094.016-.133.016m1.059 2.818c-.382.101-.763.132-1.004.522.093.124.186.249.288.381-.187.475-.654.397-1.098.413.046.148.062.233.093.335-.186.1-.257.264-.226.498.055.016.11.039.172.054.124-.155.342-.311.397-.023.794-.257 1.51-.748 1.892-1.495-.226-.171-.42-.382-.514-.685m2.951-3.17c-1.3-.435-3.348 2.399-4.212 1.566-.21-.46-.857-.413-1.262-.288.49.35.756 1.129 1.495.88.841-.164 1.495-.841 2.22-1.153.023.242-.226.35-.328.576.499-.155.942-.295 1.308-.607-.062-1.37 1.9-.413.016.428.335.008.569.164.795-.116.428-.382.451-.943-.032-1.285m-5.21-2.142c-.131-.077-.295-.077-.443-.07-.25-.638-.685-.397-1.043-.016-.53-.21-.444.265-.164.522-.272.654-.085 1.612.6 1.892.732-.311.926-1.191.887-1.9.226-.03.405-.288.164-.428m-1.877 6.074c.686 1.643 1.713-.444 1.456-1.332.475-.389.343-.623-.225-.654-.203-.436-.639-.475-.943-.116-.1.132-.256.085-.397.1-.296.133-.132.46.125.53-.14.49-.21.99-.016 1.472m.18-9.258c-.234.662.007 1.542.622 1.908.701-.32 1.153-1.239.904-2.01.17-.14.381-.21.319-.443-.117-.273-.53-.07-.639-.382-.264-.366-.615-.07-.833.171-.156.024-.32-.054-.467.016-.156.28.273.452.094.74m6.579 7c-1.456-.187-1.238.817-1.954.576.132-.156.49-.25.373-.483-1.066.467-2.188.794-3.247 1.277-.545.569-.366 1.713-1.588 1.822-.039.592-.872.997-1.394.724-.202.203-.117.25-.085.429-.172.163-.413.53-.032.521.117-.023.21-.202.335-.14-.008.078-.016.156-.03.242.1 0 .233.03.272-.016.163-.21.405-.04.591-.203.631-.42 1.519-.802 1.472-1.682 1.106-.482 1.752-2.273 3.185-1.643.716.382.91-.77 1.55-.794.178.42.264.39.498.25.397.31.327-.18.49-.406.016-.218-.21-.475-.436-.475m-8.191-4.523c.14.039.085.202.148.288.731.054 1.471-.148 2.203-.234.553 0 .53-.482.935-.552.98.046 1.588-.81 2.507-.95.732-.21 1.728-.483 2.375.038.163.172.389.203.623.164.311-.055.677-.125.84.241-.046.047-.1.11-.17.18.03.07.061.147.1.225.156-.016.18.11.234.21.086.14.28.14.312 0 .038-.17.218-.085.272-.233.031-.452-.07-1.013-.522-1.238-.218-.203-1.09.218-1.113-.218.646.148 1.9-.701 1.035-1.246-1.448-.343-3.052.358-4.523.53-.584.124-.296-.818-1.573-.57.825 1.73 2.6.507 3.986.491.008.156-.257.148-.194.343.397-.125 1.082.086 1.316-.311.124-.49 1.152-.374.848.186-.77.499-1.923.273-2.826.374-1.114.094-2.328.117-3.372.506-.202.647-.49 1.308-1.23 1.464-.522-.506-1.277.094-1.838-.42-.179.038-.218.148-.288.28-.272.109-.366.265-.085.452m7.685 1.37c.849-.016 2.819-.95 1.386-1.728-.802-.133-1.604.257-2.375.444-3.107 1.23-1.285-.28-3.216-.117.654 1.65 2.297.802 3.527.42.04.18-.186.218-.155.405.412-.086.81-.171 1.199-.25.171-.809 1.643-.817.965-.007-1.697.74-3.706.6-5.481 1.106-1.192 3.114-3.263.996-3.24 1.892-.467.039-.459.49.017.451.008.911 2.304-.14 2.733-.42.1-.218.194-.42.288-.63.7.342 1.191-.663 1.798-.842.6-.117 1.386-.708 1.9-.163.569.63 1.425-.335 1.924.303-.187.49.062.28.147.584-.008.28.452.273.46 0 0-.124.016-.202.132-.249.257-.39-.288-.817-.475-1.137-.42-.404-1.113.366-1.534-.062M38.582 17.037c-.257.28-.693-.133-.42-.405.256-.273.684.14.42.405m-.787 1.682-.179.085c-.163-.335-.428-.973-.436-1.541-.008-.125.195-.133.195-.008 0 .389.156.91.42 1.463m2.212-.568-.25.023c-.638-.513-1.432-.747-2.188-.615-.008-.078-.023-.14-.03-.21.871-.14 1.775.164 2.468.802m-.693-.95c-.265.28-.693-.132-.429-.405.257-.272.693.14.429.405m-1.472-.148c-.257.28-.693-.132-.42-.405.257-.28.685.133.42.405m2.725.958c-.257.28-.693-.132-.42-.405.257-.272.693.132.42.405m-.584-.49c-.264.28-.693-.133-.428-.405.257-.28.693.132.428.404m-5.59 1.262c.389.008.389-.584.008-.584-.374-.008-.39.584-.008.584m1.72.646.187-.062c-.124-.35-.397-.997-.794-1.394-.086-.086-.234.047-.148.133.28.28.545.747.755 1.323M34.19 20.58l.195-.164c.078-.818.467-1.55 1.09-1.993-.039-.062-.086-.117-.125-.164-.716.514-1.129 1.37-1.16 2.32m33.747 11.54h4.103v9.546h-8.908V32.12zm4.952 9.546c.008-.179-.195-.32-.374-.257v.04c-.327 1.463-.163-4.556-.195-4.338l.296.125v-.701l-.296.124V32.22c.04-.218.39-.03.203.11v.046c.405.124.521-.53.085-.537l.273-.468-.062-.062c-.008 0-.49.265-.499.265 0-.405-.693-.312-.56.086h.046c.14-.18.35.14.117.186h-4.095l.132-.28h-.748l.133.28h-4.088c-.25-.038-.04-.366.109-.186h.039c.14-.39-.553-.49-.56-.086l-.491-.265-.063.062.273.468c-.444.008-.32.661.086.537v-.047c.319-1.456.17 4.532.194 4.33l-.288-.125v.7l.288-.116c-.023-.11.125 5.754-.194 4.33v-.04c-.405-.132-.53.522-.086.53l-.273.475.063.062.49-.273c.008.413.7.312.56-.085h-.038c-.062.1-.234.046-.226-.063 0-.062.047-.109.11-.116h4.095l-.133.28h.748l-.132-.28h4.095c.055.008.11.054.11.116 0 .11-.172.164-.234.063h-.04c-.132.397.554.498.561.085.008 0 .49.273.49.273l.071-.062-.272-.475c.155 0 .28-.125.28-.273m-9.118-4.384c-.008 0 0 .086 0 .086.016-.163.28-.047.148.07l.039.04c.272.03.311-.375.038-.39v-.008l.327-.14v-.102l-.327-.14v-.008c.273-.016.234-.42-.038-.389l-.04.039c.133.117-.132.233-.147.07 0 .008-.008.094 0 .101v-3.527h.272v-.265h3.037c.171.031.031.265-.078.14l-.047.04c-.03.264.421.287.421.015l.156.327h.109l.155-.319c-.008.265.444.241.413-.023l-.039-.04c-.109.125-.257-.108-.086-.14h3.037v.265h.28c-.03-.062.117 4.322-.14 3.356l-.046-.038c-.265-.032-.304.373-.031.389v.008l-.327.14v.101l.327.14v.008c-.273.016-.234.42.03.39l.047-.04c.257-.996.11 3.49.14 3.365h-.28v.257h-3.029c-.179-.024-.039-.257.078-.14l.039-.04c.031-.256-.405-.288-.413-.023h-.008l-.155-.311h-.102l-.155.311c-.016-.257-.444-.233-.42.024l.046.038c.117-.116.249.125.078.14h-3.037v-.256h-.272zm4.212-4.562zm3.418 3.792v-.008zm-4.228 4.547h-.008zm.826 0h-.008.008m3.122.265h.56v-8.861h-8.19v8.86zm-5.326-10.917c.203-.802.483-2.18.927-2.865l-.872-.289c.008.865-.452 2.22-.748 3.045.335.039.335.039.693.109m-4.765-1.62c-.008-.537.07-1.495-.164-1.962h1.122c-.18.506-.506 2.827.451 2.702.382.008.756-.249.748-.646-.016-.553.078-1.58-.164-2.056h1.122c-.257.872-.257 2.398 0 3.27h-.95c.023-.062.03-.17.03-.319-.973.693-2.288.343-2.195-.989m-2.398.904c1.261-.499.163-2.453-.958-1.994-1.254.483-.171 2.453.958 1.994m1.923.506.008.016c-.506.405-1.145.233-1.69-.055-1.573.888-3.278-1.183-2.009-2.515 1.324-1.588 3.964.21 2.695 1.962.412.32.747.514.996.592m-7.39.436h1.052l-.717-1.137c.366-.218 1.137-.53 1.48-.506l-.825-.623-2.523 1.51.288.974.008.008c.21-.405.522-.732.856-.919.078.14.21.39.382.693m-3.761 4.64c-1.518-.1-1.83-2.717 0-2.32v-.638c-2.375-.14-2.344 3.628 0 3.55zm-.67.997c-.545-.428-1.246.335-1.79.46-.95.054-.203-1.122.373-1.207l.008-.008-.46-.335c-.856.436-1.51 2.29-.124 2.328.296.016 1.043-.506 1.285-.56.654-.125.451.747.062.95.187-.009.39-.032.576.023.358-.514.592-1.254.07-1.651m20.268 22.97 1.822-1.051c-.233-.18-1.65-2.492-1.697-2.772l-1.729.997.078.708h.016c.273-.342.654-.654 1.153-.942l.537.88c-.28.148-.888.514-1.114.553l.32.381 1.012-.584.514.849c-.343.179-.662.28-.958.296zm7.218-6.4.312-.615-2.609-1.745-.288.545c.094.125 1.799 1.13 1.799 1.13s-2.811.373-2.936.583l2.609 1.8.304-.445-1.566-1.012s2.297-.272 2.375-.241m1.34-2.617.576-1.97c-.296.024-2.943-.747-3.177-.918l-.545 1.86.553.468h.008c-.04-.428.016-.911.17-1.448l1.005.288c-.1.296-.272.957-.412 1.136l.498.07.32-1.082.965.28c-.117.359-.273.64-.475.842zM71.97 57.3c2.04-.887 1.58-2.92-.716-1.993-.966-.273.257-1.254.895-1.036l.016-.016-.49-.568c-.717.312-1.877 1.285-1.262 2.11.428.545 1.285-.03 1.845-.023.935.163-.062 1.137-.646 1.082l-.008.016M47.778 42.903l.046-.716c-.95.179-2.491.179-3.434-.008l-.046.716c.95-.179 2.484-.179 3.434.008m.319 11.625.56.78c.6-.74 1.83-1.628 2.718-1.963l-.569-.779c-.218.358-.693.709-1.066.966l-.865-1.192c.366-.272.841-.622 1.254-.716l-.568-.779c-.592.732-1.822 1.628-2.71 1.963l.56.778c.219-.358.694-.7 1.067-.965l.865 1.199c-.366.272-.841.615-1.246.708m-2.048-5.364c.7-1.277 3.06-.514 2.087.95-.732 1.238-3.045.537-2.087-.95m-.195 1.728c1.612 1.542 4.15-.926 2.476-2.515-1.604-1.557-4.181.927-2.476 2.515m-1.183-4.275.187.725 3.332-.413-.163-.662c-.172-.031-2.25.35-2.25.35s1.977-2.304 1.93-2.577l-3.363.382.07.576 1.978-.273s-1.643 1.854-1.721 1.892m43.098 4.781c-.094.11-.693 1.807-.888 1.737-.086-.133-.273-.226-.428-.18-.086-.038-.125-.17-.078-.272.117-.117.67-1.86.934-1.736a.379.379 0 0 0 .436.218.248.248 0 0 1 .024.233m-1.62 5.934c.054-.436-.506-.67-.724-.304.054-.163-.156-1.79.148-1.79a.363.363 0 0 0 .428.015c.093.008.171.101.171.21v1.76a.28.28 0 0 1-.023.109m.872 3.06c-.522 2.99-4.36.023-1.612-1.238.133.288.569.304.693.008.53.156.919.646.919 1.23m.397-10.013c-.84-.522-1.308 1.799-1.62 2.196-.147.342-.015.708.296.817l-.623 1.285c-.334-.054-.622.195-.622.584.124.506-.374 2.679.513 2.702v.607c-2.133.374-1.814 3.738.382 3.683 2.172.055 2.515-3.278.405-3.683v-.576c.327.054.615-.202.615-.584-.109-.49.343-2.585-.436-2.694l.467-.981c.802.436 1.27-1.83 1.573-2.22.14-.318.031-.677-.25-.793l.359-.74a11.623 11.623 0 0 1-.506-.763zm.499-1.254h.008a5.334 5.334 0 0 1-.195-.343.491.491 0 0 0 .187.343M61.7 2.647c-.101.834-.545 1.488-1.09 1.581v.218h1.066a.713.713 0 0 0-.132.133c-1.9.42-2.095 3.309-.28 3.986-.709-.677-.164-1.993.833-1.954.997-.04 1.542 1.277.833 1.954 1.814-.677 1.612-3.566-.28-3.986a.43.43 0 0 0-.133-.133h1.067v-.218c-.545-.093-.989-.747-1.09-1.58.833.1 1.48.545 1.58 1.09h.219V.763h-.218c-.102.545-.748.99-1.581 1.09.101-.833.545-1.487 1.09-1.58V.055H60.61v.218c.545.093.989.747 1.09 1.58-.833-.101-1.48-.545-1.589-1.09h-.21v2.975h.21c.11-.545.756-.99 1.589-1.09m.919 5.512c.731-1.355-1.776-1.355-1.044 0 .304-.186.74-.186 1.044 0m-.982 1.378c.273-.147.647-.147.927 0 .934-1.448-1.869-1.448-.927 0m.46 1.597c.849.016.849-1.316 0-1.308-.849-.008-.849 1.323 0 1.308m0 1.643c.849.016.849-1.324 0-1.308-.849-.016-.849 1.323 0 1.308m0 1.643c.849.008.849-1.324 0-1.309-.849-.016-.849 1.324 0 1.309m-1.846.007h.802c0-1.55-.14-4.446-1.105-6.548-.21-.483-.958-.14-.732.335.67 1.456 1.035 3.667 1.035 6.213m2.89 0h.801c0-2.546.366-4.757 1.036-6.213.226-.475-.522-.818-.732-.335-.958 2.102-1.106 4.999-1.106 6.548m-6.533-5.614c.787.016.787-1.214 0-1.207-.786-.008-.786 1.223 0 1.207m-5.139 3.722c.779.008.779-1.222 0-1.214-.786-.008-.786 1.222 0 1.214M58.11 8.27c.787.016.787-1.222 0-1.207-.786-.016-.786 1.223 0 1.207m-8.526 6.86c.786.008.786-1.222 0-1.215-.786-.008-.786 1.223 0 1.215m.88-1.347c.779.008.779-1.222 0-1.215-.787-.008-.787 1.223 0 1.215m4.71-4.26c.787.017.787-1.214 0-1.206-.778-.008-.778 1.222 0 1.207m-6.322 7.023c.787.016.787-1.222 0-1.207-.778-.016-.778 1.223 0 1.207m3.745-5.147c.779.016.779-1.222 0-1.206-.786-.016-.786 1.222 0 1.206m1.238-1.004c.787.008.787-1.222 0-1.215-.786-.008-.786 1.223 0 1.215m19.295 2.78c-.016.786 1.223.786 1.207 0 .016-.779-1.222-.779-1.207 0m-.405-.639c.787.008.787-1.222 0-1.214-.786-.008-.786 1.222 0 1.214m1.277 1.986c-.008.786 1.223.786 1.215 0 .008-.787-1.222-.787-1.215 0m.732 1.417c-.016.786 1.223.786 1.207 0 .016-.779-1.222-.779-1.207 0m-3.138-4.54c.787.016.787-1.222 0-1.206-.778-.016-.778 1.222 0 1.206M69.02 9.523c.779.016.779-1.215 0-1.207-.786-.008-.786 1.222 0 1.207m-2.936-1.254c.787.016.787-1.222 0-1.207-.778-.016-.778 1.223 0 1.207m1.503.545c.787.016.787-1.214 0-1.207-.786-.008-.786 1.223 0 1.207m2.772 1.581c.787.008.787-1.222 0-1.215-.786-.008-.786 1.223 0 1.215m-20.128 5.91 1.09-.35c1.706-3.084 4.54-5.373 7.896-6.214-.078-.288-.164-.56-.257-.818-3.823.981-7 3.73-8.729 7.382m22.643-.35 1.09.35c-1.728-3.652-4.905-6.393-8.728-7.382-.094.257-.18.53-.257.818 3.356.849 6.19 3.13 7.895 6.214M51.01 59.153c.428.81 2.912 3.006 3.582 1.97-1.215-.615-3.263-2.125-2.476-4.049-1.784-1.09-.21-2.834 1.175-1.354 1.48-.911 3.123-.257 4.579.755.521-1.137-2.017-1.916-2.609-2.25-.747-.25-3.107.28-3.9.319a.997.997 0 0 0-.873 1.082c.117.576.101 3.076.522 3.527m2.74-.506c1.932.008 1.683-3.052-.217-2.725.88.475 1.643 1.736.272 2.102-.514.11-1.043-.451-1.425-.724a1.373 1.373 0 0 0 1.37 1.347m.226-1.269c.499-.6-1.245-1.386-1.502-1.72-.21-.125-.467-.094-.608.085-.498.568 1.223 1.37 1.456 1.682.21.163.507.14.654-.047m10.754 8.635c-.654.063-.99.499-1.332.95-.304-.186-.708-.373-1.082-.373a.885.885 0 0 0-.56.186c1.19.475.762 2.274-.39 2.274-1.16 0-1.589-1.799-.397-2.274a.87.87 0 0 0-.56-.186c-.375 0-.78.186-1.075.373-.35-.451-.686-.887-1.332-.95.358 3.294 1.861 4.945 3.364 4.945s3.005-1.651 3.364-4.945m-.545.709c-.468 2.616-1.714 3.792-2.82 3.792-1.113 0-2.358-1.176-2.818-3.792.14.132.273.304.436.506l.242.32.342-.211c.14-.086.28-.163.413-.21a1.622 1.622 0 0 0-.125 1.028c.14.778.763 1.331 1.51 1.339.74-.008 1.363-.56 1.511-1.34a1.62 1.62 0 0 0-.132-1.027c.132.046.273.124.42.21l.343.21.241-.319c.156-.202.289-.374.437-.506m-6.269-7.094c.156-.724-.988-.957-1.12-.225-.164.724.98.957 1.12.225m3.894 1.932c.155-.725-.981-.95-1.122-.226-.155.724.981.957 1.122.226m-.826 3.511c-.132.584.795.771.904.187.124-.584-.795-.77-.904-.187m.133-18.47c-.436-.03-.896-.116-1.316-.155-.818.709.101 1.121.716 1.067.522.14 1.23-.56.6-.911m-6.813 1.923c.903 1.145 1.79 2.313 2.67 3.465.125.016.374.07.374.07l-3.185-4.228s-.054.436.14.693m3.917 3.434-3.9-5.178-.11.35 3.738 4.96zm-.381 2.079a2.28 2.28 0 0 0-.21-.07c-.11.28-.273.802-.017.98l1.27.546 1.627-1.215.444-6.54-.483.03c-.125.017-1.012 7.561-1.48 7.117.094-.49 1.176-7.116 1.176-7.116s-.319-.04-.482-.07l-.055.358-1.799-2.368-.24.11 1.93 2.538-.124.444c-.18-.11-2.04-2.694-2.227-2.936l-.382-.023 2.507 3.262-.132.444-2.811-3.698h-.358l3.044 4.01-.163.576-3.34-4.547-.436.016 3.69 4.874-.132.451-4.08-5.325-.07.404s3.8 5 4.033 5.326c-.195.616-.047.662.218 1.176.148.569-.25 1.448-.919 1.246m-4.375-2.352c.451.265.957.553 1.417.818-1.13 1.378.903 1.97.786.63.763.32 3.753 1.239 2.554-.544-3.924.132-5.918-3.987-3.753-7.125 1.324.6 5.957-1.659 5.567.638.25.257.312.28.865.273 1.339-3.076-3.279-2.157-4.93-1.799-1.479.436-2.841-1.72-4.142-.537-.521.46-.186 1.48.522 1.51.623.024.802-.84.25-1.105 1.214-.413.63 1.542.186 2.04-1.394-.716-1.627 1.534-.241.942.054.397.078.794-.024 1.184-1.502-.327-1.105 1.837.031.965.32.312.475.794.507 1.254-1.511.21-.304 2.157.404.856m-15.9-31.535c-.015-.296.195-.872.195-.872l-1.199.475s.545.273.74.498a1.032 1.032 0 0 1-.856-.023l.467.927c.101-.413.319-.654.475-.685.506.778-.756 1.635-1.293.965-.163-.272.023-.576.35-.343-.046-.576-.544-.576-.7-.147.016-.592-.133-.95-.756-1.122-.163.584.04.942.623 1.2-.334-.047-.693.28-.241.7.008-.374.32-.412.483-.163.272.685-.537.95-1.2.257.149-.055.304-.031.515.016l-.639-.803c.039.28.016.483-.039.615-.14-.163-.179-.296-.241-.607l-.483.428c.46.288.981.748 1.612 1.65.84-.824 4.236-2.242 5.544-2.203-.156-1.098-.094-1.783.039-2.312l-.639.023c.164.265.226.397.242.6-.133-.055-.289-.187-.452-.413l.086 1.02c.116-.179.218-.304.366-.366-.008.966-.779 1.324-1.06.639-.046-.296.21-.483.468-.21.047-.616-.444-.608-.662-.343.257-.592.156-.99-.366-1.308-.327.552-.195.918.226 1.339-.405-.21-.771.132-.413.584.078-.39.42-.296.499.016.062.856-1.441 1.098-1.604.187.132-.086.459-.055.81.17l-.297-.996c-.147.358-.35.498-.6.607m-3.558-.732c.382.008.39-.591.008-.591-.381-.008-.389.591-.008.591m.92-1.16c.38.016.388-.584.007-.584-.381-.008-.39.592-.008.584m-1.23 2.624c.39.008.39-.592.008-.592-.374-.008-.382.592-.008.592m.062-.77c.39.015.39-.585.008-.585-.374-.008-.39.584-.008.584m1.69-4.04-.592.046.311.77.413-.482a.224.224 0 0 0 .078.031l.062 1.036c.11.903 1.487.35.935-.374l-.662-.794a.224.224 0 0 0 .03-.078l.632.07-.304-.771-.46.374a.234.234 0 0 0-.077-.04l-.047-.747c-.195.078-.576.226-.763.304l.475.584c-.008.023-.023.047-.031.07m1.705 3.076c.25-.226-.125-.608-.366-.374-.25.234.125.615.366.374m-.327-.678c.25-.233-.125-.615-.358-.373-.25.233.117.607.358.373m44.81-7.996c.133-.475-.536-1.09-1.011-.903.062.513.607.973 1.012.903m-5.926 26.154c.452-.264.927-.46 1.34-.794a5.63 5.63 0 0 1-.273-.39c-.397.39-1.316.515-1.067 1.184m2.57-1.027c.234.389.46.786.685 1.167.896 0 .14-.747-.07-1.066-.117-.125-.366-.125-.553-.18-.023.024-.039.047-.062.079m4.438-23.936c-.342-.74-.522-.833-1.246-.755.296.732.732 1.004 1.246.755m-.475.444c.25.864.592 1.051 1.48.919-.28-.701-.74-.99-1.48-.92m-1.845 10.279c-.973-.452-1.768.125-2.733-.094.272 1.355 1.884.374 2.733.094m2.787-8.908c-.046.857.67 1.347 1.861 1.285-.311-.864-.926-1.331-1.86-1.285m3.168 3.006c.024-.039.055-.078.078-.11-.7-1.004-1.004-1.214-2.242-1.214.016 1.215 1.277 1.215 2.164 1.324M73.916 34.782c.242-.654 1.488-2.266.818-2.772-.311.187-.965.109-.903.6v2.14c.03.009.062.017.086.032m-3.824-4.508c.28-.016.522-.04.763-.055.273-.996-.295-1.105-.973-1.635-.272.825-.997 1.223-1.41 1.916.663-.047 1.052-.257 1.433-.78.063.196.125.375.187.554m7.74 7.412c-1.658 2.033-1.674 2.328.857 3.2-.024-.225-.04-.381-.063-.552-.49-.148-.973-.327-1.417-.631.32-.39.615-.763.927-1.137a87.592 87.592 0 0 1-.304-.88m1.043 5.957c-.467-.031-.903-.07-1.409-.11.016.25.031.437.047.64.28.062.521.124.778.194.078 1.472-.732 1.495-1.83.88-.327 1.869 2.687 1.682 2.414-1.604m6.198-25.477c.561 0 1.37.358 1.838.03.016-1.782-2.165-1.549-3.403-1.588.366.67.841 1.332 1.565 1.558m4.75 2.219c.514 1.23 1.347.934 1.884 1.736-.451-.148-.848-.272-1.238-.405-.03 1.308 1.62 1.449 2.53 1.947-.147-2.118-1.175-2.92-3.176-3.278m.335 6.75a.38.38 0 0 1-.094.017c-.272 1.199.561 2.25 1.083 3.27.903-1.604.864-3.434-.577-4.703-.443.849.172 1.666.39 2.476-.031.008-.062.023-.094.031-.233-.358-.475-.724-.708-1.09m.342-7.81-.023.109c-.374-.023-.747-.047-1.144-.07.42 1.362 2 .7 2.99 1.323-.569-1.09-.982-2.149-2.305-2.359.14-.646-.031-1.261-.436-1.503.008.569-.226.981-.74 1.2-.257 1.12.911 1.066 1.659 1.3M41.027 29.682c-1.2.078-1.028-1.433-1.379-2.274-.218.25-.397.452-.591.67.249.84.498 1.682.763 2.57.195-.14.366-.265.545-.39.833.592 1.596.187 1.876-.74.25.063.475.172.654-.008-.397-.81-.77-1.596-1.16-2.39-.241.047-.46-.288-.747-.016.264.74 1.253 2.235.039 2.577m49.708-6.602c-.436.833.81 1.176.826 1.962-.327-.265-.608-.483-.927-.732-.39 1.534 1.425 2.025 1.978 3.232.732-2.235.335-3.59-1.877-4.462M50.34 58.102c.506-.467-.179-.74-.451-1.105-4.524-4.213-6.206-9.687-5.817-15.76-.109-.055-.241-.125-.467-.234-.755 6.44 1.729 12.95 6.735 17.1M35.28 30.187c.28.67.686 1.44 1.363 1.72-.35-1.315.537-2.46.95-3.643.008 2.733-1.55 4.212 2.203 5.224-.996-1.611-.334-3.566-.973-5.217-.6-.35-1.277-.436-1.682-.942-.117-.233-.319-.319-.537-.373-.7-.148-1.355-.382-1.705-.974-.522.164-.833.148-1.3-.054-.047.584.451 1.176 1.105.95-.522.763-.233 1.448-.039 2.235.374-.78.95-1.254 1.589-1.659-.49.84-1.37 1.682-.974 2.733m7.358-5.42c.18.904-.07 1.66-.67 2.368.896 1.588 2.4 2.803 3.06 4.524 1.488-2.78-.1-3.715-2.14-5.233 1.308.467 2.631.919 3.363 2.173.156-2.383-.903-3.574-3.208-3.94.008-.032.016-.063.024-.102.957-.039 1.915-.039 2.818.553-.241-.74-.833-1.83-1.713-1.736.32-.654.312-1.09-.008-1.487-.148.459-.436.747-.91.763.1.825-.172 1.51-.616 2.118m-7.848.6c.016-.312.039-.608.062-.943-.358-.062-.685-.117-1.051-.179.428-.327.95-.405 1.37-.241-.366 1.518.28 2.593 1.908 2.678.498-.74.942-.856 1.425-.335-2.15-.218-.553 2.048.537 1.285.296-.42 1.222-.794.958-1.386-1.705-1.246-1.589.592-1.9-2.484a2.299 2.299 0 0 0-.226-.016c-.156.584-.732 1.036-1.2.483-.163-.187-.303-.358-.567-.405 1.167-.926 2.546.413 2.468-1.775 1.292 1.627 1.41-.18 2.694-.203-.062 1.293-.327 1.192-1.433 1.114.358.28 1.744 1.658.935 1.79-.335-.864-.904-1.704-1.854-1.876-.778.771-.397 1.635-.28 2.53.693-.233 1.277-.677 2.001-.622.242.708-.895 1.106-.249 1.806 1.106.18 2.313.187 1.954-1.378-.358-.218-.716-.366-1.09.031.016-.607.615-.716 1.083-.6 1.02-1.082.677-2.522-.42-3.402.287-.42.599-.724 1.128-.825-.187.366-.553.506-.638.84.241.296.475.577.693.857.592-.265.747-1.183.327-2.126-.724.187-2.001.787-2.001.787-.631-.234-.359.07-.273.374-2.001.366-3.963.895-5.552 2.219-.28.21-.412.085-.506-.32-.186-.288-.28.21-.303.335 0 0-1.2.288-1.729.74.374.607.895 1.573 1.729 1.246M82.34 44.733c-.56.086-.685.327-.584.872-.622 1.34-.646 2.974-1.705 4.111 2.29-.646 1.783-1.51 2.336-3.254-.109 2.359.008 2.328.864 3.94-1.76 1.245-4.64.202-5.614 2.608.273.311.616 0 .974.078-.226.28-.32.607-.685.849.077-.234.124-.374.179-.514-.662-.226-1.207 1.284-1.698 1.767 4.71-.942-.568-2.328 8.713-3.41 1.643-.771-1.55-1.978 1.666-4.018.289-1.113.468-2.266 1.067-3.27.148-.327-.086-.795-.381-1.028-1.41.997-2.087-.607-5.132 1.27M45.574 55.251c.444.078.927.164 1.347-.023a417.815 417.815 0 0 0-1.986-3.38c-1.175 1.45-3.215.561-4.492-.326-1.044-.771 1.207-1.97.482-4.532 1.005 1.62-.817 3.013 2.002 3.924-.818-1.214-.709-2.771-1.013-4.157-.039-.242-.155-.483.04-.717.093-.335.116-.786-.336-.833-3.145-1.806-2.515-.934-5.575-1.347-.755 1.324.841 2.507.592 3.808-.226.638.74.615.732 1.23.21.965.109 2.328-.997 2.702-.552.327-.109 1.027.366 1.191-.973 1.76-.226 2.04 1.27 2.92.007-.678.015-1.27.295-1.845 2.064 1.362-1.004 1.596 3.076 3.246-.413-.677-.405-1.424-.467-2.11.39.094.763.18 1.144.273.444 1.892 1.464 2.056 3.27 1.892-.646-.646-.825-1.48-1.292-2.141.537.179 1.082-.187 1.542.226m42.35-6.128c.016.03.031.062.055.093l.016-.039zm.631-.28a.385.385 0 0 1 .218.21c.062.015.148-.024.195-.094.03-.109 1.113-1.518.989-1.62-.125-.03-.234-.116-.265-.241-.11-.101-.257-.148-.358 0-.04.179-1.238 1.542-.927 1.713.047 0 .094.008.148.031m13.019-10.371c-.755.233-1.067.864-1.347 1.573-1.9-2.96-5.513-5.007-6.058-8.628.42-2.896 4.26-2.234 3.48.787 1.994-1.075 1.028-3.068-.848-3.419 2.04.164 3.161 1.885 4.547-.973-1.207.436-3.037.125-3.675.031 2.538-.342 3.917-.319 3.839-3.473-.865 1.893-3.255 1.924-4.991 2.539.109-.841-.156-1.355-.826-1.628.685 4.61-8.043 3.107 1.55 13.043-1.176-.647-2.546-.429-3.683-1.153.887 2.39 2.382 1.978 4.345 2.811-2.103-.008-2.757 2.048-1.2 3.03-.404-1.59 1.776-2.68 2.866-1.434 2.491 3.193-2.064 7.639-6.113-.381.032.444-.28.84-.708.708l-.46 1.27c.927.342-.49 2.133-.591 2.647-.164.343-.522.444-.787.257l-.451.934c.56.507-.942 1.97-1.114 2.422-.179.257-.49.35-.708.21l-.164.335c.031.047.055.07.062.07 1.02 1.207 1.488 2.141 1.215 3.426.833-.716 1.2-2.686.537-3.76.748.786 1.838 1.346 2.274 2.343.428 1.822.094 3.62-1.137 5.061-.521.53-.39.802-.451 1.449-.35 1.027-1.573 1.113-2.04 1.977-.327.763-.857 1.386-1.09 2.18 1.385-.21 1.152-2.156 2.468-2.546-.538.81-1.051 1.55-1.417 2.5 1.097-.288 3.176-.584 2.826-2.141-.257-.717.436-1.184.397-1.87.872-.31.67-.661 1.09-1.346.195.412.203.763.18 1.207-.11-.226-.172-.359-.25-.522-.623.833-.109 1.65-.195 2.546 3.037-2.725-.996-2.702 2.157-8.728.724-1.207-2.063-1.067-2.266-3.785-.194-1.168.834-2.133 1.052-3.247 1.214 2.157 5.458 2.087 4.874 4.844.856-.647.817-1.823.483-2.71 4.376-1.573.918-5.599 2.328-8.456M91.249 45.41c.023-.163.935-1.666.693-1.798-.163.03-.358-.062-.42-.218-.226-.086-.802 1.55-.904 1.65.289-.17.662.117.561.452a.159.159 0 0 0 .07-.086m.911-4.329a.214.214 0 0 0 .062.18c.164-.14.42-.079.545.085.187-.055.125-.639.164-.779a10.84 10.84 0 0 0-.678-.662zM68.482 69.323c2.943-.584.334-4.088-3.286-2.656-.32 1.394-.608 2.702-1.776 3.746 2.329.109 4.587-.047 6.76-.966 1.081-.654 1.081-3.005 2.25-4.267-1.332-.265-.71 4.283-3.948 4.143m-11.026-2.609c-3.613-1.425-6.237 2.071-3.294 2.663-3.23.14-2.608-4.415-3.94-4.142 1.168 1.261 1.168 3.613 2.243 4.259 2.18.926 4.438 1.074 6.766.965-1.168-1.043-1.456-2.351-1.775-3.745m19.225-35.958c-.101-.116-.125-.28-.04-.405-.155-.03-.412 1.41-.466 1.488.109.101.194.194.28.303.14.04.366.117.413-.085l.327-1.27c-.148.14-.397.156-.514-.03m15.417 6.213a.384.384 0 0 0-.413.506.178.178 0 0 1-.078-.023l-1.277-.872a.207.207 0 0 1-.062-.265c.241-.016.498-.132.467-.428.102.124 1.472.856 1.363 1.082m-4.695-4.438c-.078.093-.234.296-.234.296-1.417-1.62-6.19-3.473-8.254-3.17 0 0 .024-.24.032-.373l-.016.008.786-.499-.67-.552c.008-.078-.428-2.796-.428-2.796l1.184-.039s-.42.499-.444.896c.07.039.124.109.163.195.242-.102.49-.592.49-.592l.118 1.604s-.327-.46-.569-.545a.34.34 0 0 1-.085.155c.342 1.067 1.9 1.13 1.9.218-.055-.474-.577-.397-.546.11-.856-.686.296-1.76.771-.678-.062-.623-.008-.981.483-1.285.32.405.273.787-.078 1.394 1.051-.973 1.448.678.467.919.475-.864-.903-.592-.397.311.467.709 1.589.608 1.986-.163a.85.85 0 0 1-.062-.148c-.39-.078-.974.257-.974.257l.545-1.48s.226.639.553.834a.592.592 0 0 1 .218-.117c.062-.39-.335-.997-.335-.997l1.822.701s-.716.179-.95.506c.047.07.078.148.078.226.374.078.989-.234.989-.234l-.646 1.44s-.195-.63-.53-.84a.522.522 0 0 1-.148.07c-.257.833.499 1.643 1.324 1.44 1.004-.303.21-1.448-.062-.49-.545-.833.919-1.76.989-.358.179-.678.412-.981.934-1.06.132.546-.078.842-.568 1.254 1.129-.474 1.175 1.09.093 1.005.374-.35.047-.748-.327-.444-.646.678.569 1.65 1.518 1.168 0-.062.016-.125.04-.179-.234-.163-.795-.179-.795-.179l1.168-.864s-.14.521-.031.794a.583.583 0 0 1 .257.031c.25-.25.265-.927.265-.927l.872 1.083s-2.188 1.004-2.57 1.3l-.607-.062.296.856zm-6.424-7.888c.366.125.708.32 1.074-.047-.35 0-.459-.249-.56-.482-.171-1.2 1.79-.779 2.523-.693 1.837 1.121 4.975.405 3.885-2.258.849.53.56 1.985-.086 2.554-1.705.926-3.317.233-5.014 2.032-.257-.826-1.238-.779-1.589.132-.327.016-.412.016-.716.031-.062-.475.327-.817.483-1.269m4.547-4.625c-.545.374-1.028.927-1.588.179-.125.031-.234.047-.366.078.825-1.277.755-1.059 1.954-.257m1.853-2.912c.405.451.584.934.584 1.487-.389-.132-.56-.56-.584-1.487m-16.95 7.226 2.055-.74.755 1.526-1.433.903zm-1.324-.359c-.265 1.566-3.792.888-3.45-.67.265-1.572 3.792-.887 3.45.67m-7.016.678-2.196-1.55 2.204-1.557 2.203 1.55zm-5.046.195c-2.234.451-2.702-2.01-.459-2.414 2.235-.452 2.702 2.001.46 2.414m-4.665 1.175-1.425-.903.756-1.526 2.055.74zm27.136-4.936c.179-.016.32-.031.522-.055-.343-.249-.008-.591.272-.35.678.53-.677 1.386-.794.405m13.642 17.628-.187-.023-.506-1.363c.234-.303.366-.794-.008-1.035-.49-.195-1.884-1.783-2.297-.755-.171.062-1.27.124-1.355.327-.53-.834-.981-1.721-1.308-2.71.218-1.145 3.247-2.57 3.247-2.57s-.857-1.238-1.2-1.938c-.155.342-.295.194-.63.35 1.69-2.998 2.048-6.938-.187-9.764-.225-.49-.124-1.137-.342-1.62-.39-.506-.654-1.51-1.34-1.62 0 .888-.093 1.76.335 2.586.46.576-.623 1.059-.965.607.654-.078.755-.202.537-.568-2.788-.623-4.337 1.331-6.992 1.635-.234 0-.444.086-.576.296-1.636 2.203 2.04.7 2.359 2.164-.615.506-.7.172-1.277.024-.825.03-1.627.288-.6.988-.623.99-.6 1.34-1.876 1.425.553.78.436 1.916.584 2.804-.911.17-1.534.615-1.55 1.588-.412.086-.856-.125-1.152.32-.568-.476-1.23-.561-1.916-.577A15.905 15.905 0 0 0 71.931 28c.171-.646.343-1.253.49-1.814.258-.163 1.176-.747 1.418-.903l-.74-1.487c1.643-5.646 2.172-5.965 3.006-6.09l.038-.147-3.028-.974-.055.195c.763.56 1.012 1.48.662 2.562-.81-.35-1.27-1.114-1.184-1.799a5.05 5.05 0 0 0-.202-.062l-1.012 3.372s.148.046.163.046c.397-.576 1.09-.903 1.9-.763-.942 2.982-5.162 2.056-4.407-.483.537-1.043 1.557-.373 1.067.717 2.367-.826.973-4.236-1.06-2.204.678-1.37 1.06-2.453.219-3.776-1.098.7-1.378 1.97-1.168 3.66-1.332-3.053-3.668.093-1.768 1.689-.35-2.274 2.453-.77.553 1.059-1.799 1.277-4.025-.195-4.088-2.453 1.044.094 1.838.717 1.947 1.487l.195.008.124-3.854-.233-.008c-.164.779-1.013 1.44-2.087 1.464.078-1.191.755-2.118 1.635-2.266v-.226h-4.438v.226c.88.148 1.557 1.075 1.627 2.266-1.067-.023-1.915-.685-2.079-1.464l-.233.008.124 3.854.195-.008c.109-.77.903-1.393 1.946-1.487-.062 2.258-2.289 3.73-4.095 2.453-1.892-1.83.91-3.333.56-1.059 1.9-1.596-.436-4.742-1.767-1.69.202-1.69-.07-2.958-1.16-3.66-.841 1.324-.467 2.407.202 3.777-2.024-2.032-3.418 1.378-1.051 2.204-.49-1.09.53-1.76 1.067-.717.755 2.539-3.465 3.465-4.407.483.81-.14 1.502.187 1.9.763.016 0 .163-.046.163-.046l-1.012-3.372s-.187.054-.203.062c.086.685-.373 1.448-1.183 1.799-.35-1.082-.102-2.001.662-2.562l-.047-.195-3.037.974.047.148c.825.124 1.355.443 2.998 6.089-.133.264-.615 1.238-.74 1.487.234.148 1.168.74 1.417.903.14.514.288 1.067.444 1.65.008-.007.016-.007.016-.007 0 .016-.008.023-.016.008-4.08 1.907-3.154 3.2-6.3 2.826-.28.654-.544 1.3-1.183 1.737-.117-.997-.56-1.768-1.144-2.469-.289-.342-.686.031-1.122.07-.848 1.854-1.44.18-2.943 1.153.062.864.195 1.72.67 2.523-1.122-.078-2.04-.382-2.78-.904-3.34 3.73-6.821 7.312-9.679 11.415-1.526 2.01-5.606.841-4.523-1.938.49-2.025 3.418-1.589 3.23.42 1.45-1.612.515-3.208-1.689-2.85 2.025-.88 3.247.779 5.077-1.503-1.402.04-2.585-.405-3.979-.085 1.76-1.06 4.181.514 5.692-2.406-1.316.14-2.5.693-3.854.895 8.144-7.77.303-8.152 1.3-11.508-.638.537-.997 1.082-.709 1.806-1.822-.763-4.523-.537-5.263-2.756-.18 3.161 1.207 2.935 3.59 3.582-1.098-.133-2.189-.14-3.216-.522.21 1.417 1.284 1.72 2.546 1.58-1.238.686-.95 2.453.303 3.053-.802-4.563 6.035-2.998 2.913 1.199-1.449 2.157-3.543 3.769-5.31 5.653-.328-.576-.678-1.153-1.45-1.067 1.348 1.55-.17 3.231-.529 4.835-.513 1.97 1.23 3.652 3.1 3.886-.748.88-.803 1.674-.226 2.39.56-2.904 4.773-2.25 5.17-5.388.07-.366.249-.654.662-.825-1.9 2.141 2.663 6.68-1.628 7.21-.607.023-.763.662-.42 1.121-1.768-.085-2.258.584-2.53 2.258.778-.202 1.51-.389 2.242-.584-.771 2.025-2.523-.117-2.235 3.48a21.313 21.313 0 0 0 2.04-1.113c.639 2.017-3.208 1.145-.32 4.369.18-.6.95-1.838 1.348-2.11-.358 1.012-.273 2.187.864 2.64l.148-.748h.094c.163.67.186 1.604.833 1.993.218.086.335.202.405.428.116.374.467.475.802.514.428.094.537-.39.848-.584.086.53.717.615 1.02 1.067.242-2.616-3.239-1.667-2.437-3.395.304 1.051 1.293.825 1.978 1.254.273.436.919.802 1.254.194.327.242.615.46.903.678-.678-3.115-2.29-1.192-3.31-2.827.71.04 1.464 1.083 2.227.366.413.428.732.919 1.044 1.417.117-.989-.25-1.752-1.036-2.304-.88-.538-2.079.42-2.834-.662-1.028-1.27-1.004-3.06-.467-4.532.498-1.13 1.869-1.557 2.5-2.632-.172.95-.086 2.6.988 2.904-.265-1.76.989-3.348 1.246-5.045.327-.428.343-.763.047-1.23-.538-.872-.686-1.931-1.27-2.788-.918-1.285-2.04-1.316-.179-2.67-1.129 1.76-.21 1.113.771 2.771.18-.56 1.013-1.284-.03-1.284-1.644-.802 2.14-2.905 2.997-2.951.84-.07 2.024.023 2.663-.81-.405-.756-.787-.865-.11-1.651-.459-.273-.863-.592-.941-1.191-.436.148-.826.28-1.277.443.412-.467 1.627-1.417 1.76-.365.03.584.615.693 1.066.84-.335.483-.887.966-.381 1.527.35.373.568 1.066 1.113 1.16.14-.553.28-1.075.428-1.612 1.2 1.254-1.199 1.954 2.087 3.083-.124-.677-.226-1.339-.14-2.04 1.58 1.324-.685 2.157 2.967 2.585-.405-.482-.499-1.012-.654-1.549.615.093 1.105.677 1.495 1.113.381.577.654.888 1.51.327.04.102.055.242.125.296.381.288.233.647.226 1.036h.1c.507-.514.546-1.098.39-1.736-.358-1.207-1.83-.25-2.351-1.48.7.467 1.393.748 2.156.35.429.405.608.701.818 1.27.35-1.3-.054-2.632-1.425-2.243-.428.156-.607.125-1.035-.249.638.218 1.059-.109 1.463-.397.094.109.148.241.203.241.39.024.638.257.88.545.124-1.113-.981-2.016-2.095-1.728-.28 1.362-1.425.592-2.336.405-1.41-.826-2.149-2.406-3.395-3.434.117-1.534-1.152-2.757-2.686-2.663 1.378-.607 3.021.584 3.13 2.024.047.592.405.958.787 1.402 4.664-9.383 19.723-11.843 28.373-5.887v.008c.74.67 1.542 1.223 2.305 1.931.296-.895.125-1.962 1.456-1.417l.25-.17c-.273-.756.295-1.613 1.09-1.667v.584c-.35.062-.623.397-.561.763.265-.055.506.296.358.522.257.14.607.085.802-.117.218.008.444.03.662.054-.304.716-1.355.966-1.955.436.117.164-.397 1.752-.42 1.947a.501.501 0 0 1-.506.374c.093.155.171.28.257.428.381-.21.91-.203.856-.74.078-.304-.124-1.705.312-1.58.179.537-.156 1.152.241 1.674 1.246-.312.701-1.441 2.212-1.737.6-.054 1.868-.342 2.195.257-1.323-.35-3.029.008-3.324 1.518-1.37.327-2.531 1.309-3.995 1.309-1.16.062-1.48 1.456-1.526 2.421-.195 1.098-.25 2.235-.74 3.255-.241.39-.039.84.094 1.199.444.234.763 1.783.825 2.336 0 1.004 1.729 1.347 2.43 1.97.194-1.262-2.196-.903-1.862-2.67.429 1.167 1.355 1.408 2.375 1.985-.319-1.184-.412-3.146-2.063-2.905-.639-.88.288-.934-.008-1.985.475.148.7.311.825.607-.148-.047-.28-.093-.482-.156.054.748.708.927 1.206 1.44-.085-1.23-.194-2-1.331-2.592-.654-.6.093-1.954.054-2.772-.023-.241 1.519-1.012 1.76-.942 1.145.148 2.344-.039 3.457.257 1.106.342.156-2.056 1.94-.794-1.293-.382-.507 1.035-1.441 1.105-.647.008-1.207-.054-1.885-.078 2.344 5.225 7.56 3.691 8.986 8.355 1.207-1.05.39-1.035.054-2.141 2.702 1.806-2.523 3.893-.56 7.054-.125-.358 1.105-1.837 1.245-2.133.226-.335.6-.358.85-.117l.388-.81c-.724-.405.592-2.11.686-2.6.14-.288.451-.429.693-.304l.366-1.02c-.693-.179-.172-1.853-.226-2.32-.973-.872-1.76-1.97-2.515-2.983l.467-.077a.585.585 0 0 0 .218.607c.335.132 1.612 1.363 2.009 1.067l.202.545c-.327.085-.381.537-.381.84.171.149.35.28.522.437.023-.117.008-.608.1-.686a.395.395 0 0 0 .593.047c.155.078-.04 1.16-.016 1.293.186.202.365.412.529.63-.07-.49.545-2.39-.304-2.484M463.437 161.985c.249-3.955 2.958-7.195 7.288-7.195 4.204 0 7.1 3.209 7.35 7.195zm14.545 7.101c-.748 3.364-3.115 4.984-6.603 4.984-5.575 0-8.098-3.956-7.942-8.379h19.092c.249-6.166-2.523-14.607-11.555-14.607-6.946 0-11.991 5.575-11.991 13.268.249 7.755 4.08 13.424 12.24 13.424 5.762 0 9.749-3.021 10.9-8.69zm-21.448-9.219c-.654-6.073-5.201-8.783-10.994-8.783-8.098 0-12.054 6.011-12.054 13.673 0 7.63 4.143 13.019 11.93 13.019 6.478 0 10.308-3.644 11.274-9.904h-4.298c-.56 3.893-2.928 6.198-7.008 6.198-5.326 0-7.444-4.579-7.444-9.313 0-5.139 1.869-9.967 7.942-9.967 3.489 0 5.669 1.87 6.292 5.077zm-27.012 17.317v-25.508h-4.205v25.508zm0-30.086v-5.14h-4.205v5.14zm-17.317 30.086h4.173v-21.802h4.953v-3.706h-4.953v-3.55c0-2.212 1.184-2.866 3.208-2.866.748 0 1.651.093 2.368.343v-3.645c-.78-.249-1.9-.404-2.71-.404-4.579 0-7.04 2.18-7.04 6.322v3.8h-4.297v3.706h4.298zm-14.83 0h4.173v-21.802h4.953v-3.706h-4.953v-3.55c0-2.212 1.184-2.866 3.208-2.866.748 0 1.651.093 2.367.343v-3.645c-.778-.249-1.9-.404-2.71-.404-4.578 0-7.038 2.18-7.038 6.322v3.8h-4.298v3.706h4.298zm-35.28-17.597c0-7.132 3.582-14.514 12.178-14.514s12.178 7.382 12.178 14.514c0 7.101-3.582 14.483-12.178 14.483s-12.178-7.382-12.178-14.483zm-4.703 0c0 9.593 5.669 18.438 16.881 18.438 11.181 0 16.881-8.845 16.881-18.438 0-9.624-5.7-18.47-16.88-18.47-11.213 0-16.882 8.846-16.882 18.47zm-21.167-15.542h-4.174v7.63h-4.36v3.707h4.36v16.227c0 4.672 1.713 5.575 6.042 5.575h3.208v-3.706h-1.9c-2.616 0-3.176-.28-3.176-2.274v-15.822h5.076v-3.706h-5.076zm-31.883 33.14h4.204v-14.421c0-4.579 2.46-7.974 7.538-7.974 3.208 0 5.2 1.963 5.2 5.14v17.254h4.174v-16.787c0-5.45-2.055-9.313-8.783-9.313-3.675 0-6.51 1.495-8.284 4.64h-.094v-4.048h-3.955zm-22.512-15.2c.25-3.955 2.959-7.195 7.288-7.195 4.205 0 7.101 3.209 7.35 7.195zm14.545 7.101c-.747 3.364-3.114 4.984-6.603 4.984-5.575 0-8.098-3.956-7.942-8.379h19.092c.25-6.166-2.522-14.607-11.555-14.607-6.945 0-11.99 5.575-11.99 13.268.248 7.755 4.08 13.424 12.24 13.424 5.762 0 9.748-3.021 10.9-8.69zm-58.517 8.098h4.205V161.3c0-1.962 1.868-6.51 6.82-6.51 3.738 0 4.766 2.368 4.766 5.669v16.725h4.205V161.3c0-3.956 2.554-6.51 6.665-6.51 4.08 0 4.92 2.523 4.92 5.669v16.725h4.205v-18.687c0-5.295-3.426-7.413-8.502-7.413-3.302 0-6.26 1.589-7.974 4.33-1.059-3.146-3.862-4.33-7.007-4.33-3.613 0-6.323 1.433-8.254 4.33h-.094v-3.738h-3.955zm-28.024 9.78h4.204v-13.175h.094c1.837 2.99 5.668 3.987 8.222 3.987 7.818 0 11.649-6.011 11.649-13.268 0-7.195-3.893-13.424-11.742-13.424-3.55 0-6.759 1.246-8.13 4.05h-.093v-3.458h-4.204zm19.746-22.768c0 4.984-1.93 9.874-7.662 9.874-5.762 0-8.035-4.672-8.035-9.655 0-4.735 2.118-9.625 7.786-9.625 5.45 0 7.911 4.641 7.911 9.406zm-43.898.25c0-6.167 3.55-9.656 7.942-9.656 4.391 0 7.942 3.489 7.942 9.656 0 6.167-3.55 9.624-7.942 9.624s-7.942-3.457-7.942-9.624zm-4.454 0c0 7.475 4.298 13.33 12.396 13.33 8.066 0 12.365-5.855 12.365-13.33s-4.299-13.362-12.365-13.362c-8.098 0-12.396 5.887-12.396 13.362zm-8.075 12.738h4.205v-35.226h-4.205zm-22.608-15.199c.25-3.955 2.96-7.195 7.288-7.195 4.205 0 7.102 3.209 7.35 7.195zm14.545 7.101c-.747 3.364-3.114 4.984-6.603 4.984-5.575 0-8.097-3.956-7.942-8.379h19.093c.249-6.166-2.523-14.607-11.555-14.607-6.946 0-11.992 5.575-11.992 13.268.25 7.755 4.08 13.424 12.24 13.424 5.763 0 9.75-3.021 10.902-8.69zm-19.303-17.41h-4.392l-6.945 21.272h-.125l-7.132-21.272h-4.703l9.468 25.508h4.485zm-42.386 10.31c.25-3.956 2.959-7.196 7.288-7.196 4.205 0 7.101 3.209 7.35 7.195zm14.545 7.1c-.747 3.364-3.115 4.984-6.603 4.984-5.575 0-8.098-3.956-7.942-8.379h19.092c.25-6.166-2.523-14.607-11.555-14.607-6.945 0-11.99 5.575-11.99 13.268.248 7.755 4.08 13.424 12.24 13.424 5.761 0 9.748-3.021 10.9-8.69zm-45.95-23.172h7.88c8.658 0 11.741 5.077 11.741 13.455 0 12.988-8.627 13.86-11.835 13.86h-7.787zm-4.673 31.27h12.085c11.742 0 16.912-6.665 16.912-18.438 0-11.306-6.073-16.788-16.912-16.788H67.323zm-34.091-21.646c-1.558-1.931-3.426-4.018-3.426-6.136 0-2.554 2.086-3.737 4.048-3.737 2.523 0 4.05 1.713 4.05 3.737 0 3.053-2.648 4.797-4.672 6.136zm12.77 21.646h5.481l-6.852-7.942c1.464-3.208 1.962-4.454 2.367-8.69H42.98c-.093 1.87-.498 3.707-1.121 5.482l-6.385-7.755c3.426-1.962 6.634-4.859 6.634-9.126 0-4.765-4.142-7.195-8.534-7.195-5.139 0-7.942 3.458-7.942 7.257 0 3.551 1.9 5.513 3.893 8.285-4.485 2.367-8.253 5.17-8.253 10.652 0 2.865 1.495 9.624 11.025 9.624 3.831 0 7.818-1.682 9.936-4.983zm-6.074-7.288c-1.713 2.554-4.298 4.174-7.506 4.174-3.395 0-6.697-2.399-6.697-5.95 0-4.173 2.804-6.135 6.105-7.941zM511.883 124.1h4.205v-14.42c0-4.579 2.46-7.974 7.537-7.974 3.208 0 5.201 1.962 5.201 5.14V124.1H533v-16.788c0-5.45-2.056-9.312-8.783-9.312-2.99 0-6.696 1.246-8.036 4.33h-.093V88.873h-4.205zm-8.201-33.139h-4.174v7.63h-4.36v3.707h4.36v16.227c0 4.672 1.713 5.575 6.042 5.575h3.208v-3.706h-1.9c-2.616 0-3.176-.28-3.176-2.274v-15.822h5.076v-3.706h-5.076zM488.368 124.1h4.205V88.874h-4.205zm-3.094-3.364c-.436.156-.904.25-1.277.25-1.34 0-1.34-.873-1.34-2.866v-13.112c0-5.98-4.983-7.008-9.561-7.008-5.731 0-10.559 2.211-10.808 8.534h4.174c.218-3.738 2.834-4.828 6.385-4.828 2.616 0 5.668.53 5.668 4.236 0 3.208-3.987 2.803-8.596 3.738-4.33.81-8.627 2.086-8.627 7.848 0 5.14 3.8 7.164 8.44 7.164 3.55 0 6.665-1.184 8.97-3.956 0 2.772 1.402 3.956 3.55 3.956 1.246 0 2.274-.25 3.022-.685zm-6.821-5.513c0 2.368-2.274 5.762-7.787 5.762-2.554 0-4.92-.965-4.92-3.737 0-6.26 9.468-3.893 12.707-6.323zm-38.283-6.322c.25-3.956 2.959-7.195 7.288-7.195 4.205 0 7.101 3.208 7.35 7.195zm14.545 7.101c-.747 3.364-3.114 4.983-6.603 4.983-5.575 0-8.098-3.955-7.942-8.378h19.092C459.512 106.44 456.74 98 447.707 98c-6.945 0-11.99 5.575-11.99 13.268.249 7.755 4.08 13.424 12.24 13.424 5.762 0 9.748-3.021 10.9-8.69zm-19.587-17.41h-4.36l-5.7 20.867h-.125l-5.325-20.867h-4.579l-5.139 20.867h-.093l-5.762-20.867h-4.641l8.191 25.508h4.548l5.107-20.276h.125l5.17 20.276h4.423zM376.43 124.1h4.204v-14.42c0-4.579 2.46-7.974 7.538-7.974 3.208 0 5.2 1.962 5.2 5.14V124.1h4.174v-16.788c0-5.45-2.055-9.312-8.783-9.312-3.675 0-6.51 1.495-8.284 4.64h-.094v-4.048h-3.955zm-24.051-12.739c0-6.166 3.55-9.655 7.942-9.655s7.942 3.489 7.942 9.655c0 6.167-3.55 9.624-7.942 9.624-4.391 0-7.942-3.457-7.942-9.624zm-4.454 0c0 7.475 4.298 13.33 12.396 13.33 8.067 0 12.365-5.855 12.365-13.33S368.388 98 360.32 98c-8.098 0-12.396 5.886-12.396 13.361zM308.323 124.1h4.205v-15.884c0-1.962 1.868-6.51 6.82-6.51 3.738 0 4.766 2.367 4.766 5.669V124.1h4.204v-15.884c0-3.956 2.554-6.51 6.666-6.51 4.08 0 4.92 2.523 4.92 5.669V124.1h4.205v-18.687c0-5.295-3.426-7.413-8.502-7.413-3.302 0-6.26 1.588-7.974 4.33-1.059-3.147-3.862-4.33-7.007-4.33-3.613 0-6.323 1.433-8.254 4.33h-.094v-3.738h-3.955zm-40.899 0h4.205v-15.884c0-1.962 1.869-6.51 6.82-6.51 3.738 0 4.766 2.367 4.766 5.669V124.1h4.205v-15.884c0-3.956 2.554-6.51 6.665-6.51 4.08 0 4.921 2.523 4.921 5.669V124.1h4.205v-18.687c0-5.295-3.426-7.413-8.503-7.413-3.301 0-6.26 1.588-7.973 4.33-1.06-3.147-3.862-4.33-7.008-4.33-3.613 0-6.323 1.433-8.254 4.33h-.093v-3.738h-3.956zm-24.05-12.739c0-6.166 3.55-9.655 7.942-9.655 4.391 0 7.942 3.489 7.942 9.655 0 6.167-3.55 9.624-7.942 9.624s-7.942-3.457-7.942-9.624zm-4.454 0c0 7.475 4.298 13.33 12.396 13.33 8.067 0 12.365-5.855 12.365-13.33S259.383 98 251.316 98c-8.098 0-12.396 5.886-12.396 13.361zm-3.015-11.866c-1.028-7.506-7.132-11.462-14.483-11.462-10.87 0-16.694 8.285-16.694 18.563 0 10.247 5.388 18.345 16.29 18.345 8.938 0 14.295-5.295 15.23-14.11h-4.672c-.405 5.825-4.05 10.154-10.154 10.154-8.44 0-11.991-6.696-11.991-14.731 0-7.35 3.55-14.265 11.929-14.265 4.92 0 8.814 2.523 9.873 7.506zM180.247 124.1h2.927c.156 1.62-.685 3.987-2.865 4.796v2.46c3.8-1.151 5.42-3.986 5.42-7.754v-4.984h-5.482zm-26.653 0h4.205v-14.42c0-4.579 2.46-7.974 7.537-7.974 3.208 0 5.201 1.962 5.201 5.14V124.1h4.174v-16.788c0-5.45-2.056-9.312-8.783-9.312-3.675 0-6.51 1.495-8.285 4.64h-.093v-4.048h-3.956zm-5.074-25.508h-3.956v3.644h-.031c-1.557-2.803-4.392-4.236-7.6-4.236-8.907 0-11.804 7.444-11.804 13.455 0 6.976 3.8 12.956 11.4 12.956 3.239 0 6.509-1.557 7.942-4.64h.093v1.65c0 5.731-2.18 9.687-7.63 9.687-2.741 0-6.479-1.153-6.635-4.143h-4.173c.25 5.513 5.762 7.507 10.558 7.507 8.067 0 11.836-4.205 11.836-12.552zm-11.742 22.113c-5.544 0-7.195-5.139-7.195-9.717 0-4.89 2.149-9.282 7.537-9.282 5.264 0 7.257 4.64 7.257 9.126 0 4.796-2.087 9.873-7.6 9.873zm-15.519-31.83h-4.205v5.138h4.205zm-4.205 35.225h4.205V98.592h-4.205zm-22.607-15.2c.249-3.955 2.959-7.194 7.288-7.194 4.204 0 7.101 3.208 7.35 7.195zm14.545 7.102c-.748 3.364-3.115 4.983-6.603 4.983-5.575 0-8.098-3.955-7.942-8.378h19.092c.25-6.167-2.523-14.607-11.555-14.607-6.946 0-11.991 5.575-11.991 13.268.249 7.755 4.08 13.424 12.24 13.424 5.762 0 9.749-3.021 10.901-8.69zm-32.82 8.098h4.173v-11.337c0-6.51 2.46-10.31 9.22-10.31V98c-4.517-.156-7.35 1.837-9.344 5.98h-.125v-5.388h-3.924zm-24.025-12.739c0-6.166 3.55-9.655 7.942-9.655s7.942 3.489 7.942 9.655c0 6.167-3.55 9.624-7.942 9.624-4.391 0-7.942-3.457-7.942-9.624zm-4.454 0c0 7.475 4.298 13.33 12.396 13.33 8.067 0 12.365-5.855 12.365-13.33S68.156 98 60.089 98c-8.098 0-12.396 5.886-12.396 13.361zM23.514 124.1h4.672v-16.133h16.196v-3.956H28.186V92.83h18.438v-3.956h-23.11Zm0 0"/>
</svg>
