<svg xmlns="http://www.w3.org/2000/svg" viewBox="0 0 91 44"><path d="M90.15 28H76.915c-1.094 2.8-3.556 4.583-6.4 4.583-5.111 0-8.164-3.937-8.164-10.532 0-5.122 2.489-10.634 7.951-10.634 2.945 0 5.063 1.295 6.216 3.768H89.86C87.64 5.395 80.675 0 70.195 0c-7.411 0-13.467 3.258-17.144 8.645a20.35 20.35 0 00-1.137 1.871l-.053-.104C49.715 6.152 44.806 0 32.606 0c-9.613 0-16.494 5.523-19.748 12.553V.706H0v42.586h12.858V31.448C16.112 38.477 22.99 43.998 32.6 44h.01c8.749-.001 15.37-3.965 18.945-10.832a19.337 19.337 0 002.538 3.933c2.712 3.244 6.452 5.457 10.989 6.393a25.21 25.21 0 005.106.506h.014c8.645-.003 18.305-5.026 19.948-16M49.643 17.106c-.068.364-.134.73-.185 2.207h-18.24v10.012h8.472c-1.062 1.648-3.007 3.259-6.554 3.259-5.991 0-9.224-5.453-9.224-10.583 0-6.33 3.494-10.583 8.694-10.583 1.46 0 2.685.16 3.718.494v-.001c1.668.537 2.83 1.533 3.633 3.079h10.066a17.412 17.412 0 00-.38 2.116" fill="#1a1a1a" fill-rule="evenodd"/></svg>